<?xml version="1.0" encoding="UTF-8" standalone="no"?>
<!DOCTYPE svg PUBLIC "-//W3C//DTD SVG 1.1//EN" "http://www.w3.org/Graphics/SVG/1.1/DTD/svg11.dtd">
<svg width="100%" height="100%" viewBox="0 0 1509 1543" version="1.1" xmlns="http://www.w3.org/2000/svg" xmlns:xlink="http://www.w3.org/1999/xlink" xml:space="preserve" xmlns:serif="http://www.serif.com/" style="fill-rule:evenodd;clip-rule:evenodd;stroke-linejoin:round;stroke-miterlimit:2;">
    <g transform="matrix(1,0,0,1,-5883,-13541)">
        <g transform="matrix(8.333333,0,0,8.333333,0,0)">
            <g id="ico-reunion">
                <g transform="matrix(1,0,0,1,737.476562,1660.924506)">
                    <path d="M20.145,3.691C6.767,5.69 -1.776,18.15 0.314,30.866C2.403,43.583 14.35,52.269 27.045,50.382C39.885,48.475 48.874,36.449 46.935,23.561C44.997,10.674 33.406,1.705 20.145,3.684L20.145,3.691ZM106.712,50.94C93.334,52.939 84.791,65.399 86.881,78.116C88.964,90.819 100.917,99.518 113.612,97.631C126.307,95.744 135.441,83.698 133.503,70.811C131.604,58.206 119.973,48.955 106.712,50.934L106.712,50.94Z" style="fill:white;fill-rule:nonzero;"/>
                </g>
                <g transform="matrix(1,0,0,1,706,1648.565323)">
                    <path d="M42.962,70.933L66.867,70.901C83.801,70.874 96.22,85.616 94.262,102.376L114.107,102.376C116.36,102.376 117.937,104.165 118.016,106.091C118.102,108.221 116.61,110.253 114.041,110.253L19.707,110.233C8.733,110.24 0,101.469 0,90.554L0,19.713C0,8.791 8.74,0.033 19.674,0.026L82.579,0C84.924,0 86.429,1.802 86.528,3.722C86.639,5.872 85.082,7.871 82.579,7.877L19.155,7.936C13.182,7.936 7.892,13.216 7.892,19.213L7.833,90.041C7.833,95.36 10.731,99.891 15.823,101.607C14.305,85.248 26.449,70.966 42.955,70.94L42.962,70.933ZM70.797,102.376L70.823,94.479C70.83,92.073 72.814,90.455 74.969,90.574C76.888,90.679 78.669,92.231 78.675,94.486L78.675,102.37L86.337,102.409C88.256,90.85 80.213,79.251 67.866,78.889C59.225,78.633 50.926,78.633 42.285,78.889C29.938,79.258 21.882,90.843 23.814,102.409L31.462,102.37L31.475,94.486C31.475,92.066 33.48,90.462 35.622,90.574C37.547,90.679 39.315,92.231 39.321,94.486L39.348,102.383L70.797,102.383L70.797,102.376Z" style="fill:white;fill-rule:nonzero;"/>
                </g>
                <g transform="matrix(1,0,0,1,796.550781,1625.000069)">
                    <path d="M32.921,54.995L17.893,66.179C16.874,66.936 15.107,67.028 13.885,66.502C12.873,66.068 11.749,64.365 11.742,63.056L11.696,55.08C5.493,54.929 0,50.123 0,43.765L0,11.217C0,5.293 5.231,-0 11.23,-0L59.462,-0C65.77,-0 70.751,5.576 70.757,11.71L70.757,43.304C70.757,49.478 65.737,55.015 59.494,55.015L32.921,55.002L32.921,54.995ZM30.194,47.19L58.962,47.19C61.144,47.197 62.892,45.454 62.892,43.252L62.892,11.763C62.892,9.554 61.17,7.818 58.929,7.818L11.762,7.818C9.521,7.818 7.793,9.541 7.8,11.763L7.905,44.133C7.912,46.848 11.657,47.453 13.622,47.216C15.915,46.94 18.452,47.23 19.234,49.577C19.667,50.866 19.608,52.917 19.687,54.962L30.187,47.184L30.194,47.19Z" style="fill:white;fill-rule:nonzero;"/>
                </g>
                <g transform="matrix(1,0,0,1,808.285156,1766.708835)">
                    <path d="M51.182,7.877L27.526,7.877C16.638,7.877 7.931,16.661 7.898,27.511L7.859,39.379C7.852,41.621 6.105,43.186 4.16,43.284C2.044,43.396 -0.007,41.779 0,39.379L0.026,27.517C0.066,12.315 12.321,-0 27.533,-0L51.175,-0C66.407,-0 78.629,12.302 78.675,27.53L78.715,39.385C78.721,41.614 76.875,43.192 75.002,43.291C72.821,43.403 70.862,41.785 70.856,39.385L70.81,27.517C70.77,16.661 62.07,7.884 51.182,7.884L51.182,7.877Z" style="fill:white;fill-rule:nonzero;"/>
                </g>
                <g transform="matrix(1,0,0,1,737.480469,1660.924464)">
                    <path d="M20.144,3.691C33.404,1.712 45.035,10.963 46.934,23.568C48.833,36.173 39.883,48.475 27.043,50.388C14.348,52.275 2.395,43.576 0.312,30.873C-1.771,18.17 6.765,5.697 20.144,3.698L20.144,3.691ZM20.636,11.581C11.614,13.298 6.41,21.977 8.217,30.36C10.024,38.711 18.172,44.076 26.55,42.485C35.021,40.874 40.672,32.602 39.042,24.12C37.445,15.809 29.527,9.898 20.636,11.588L20.636,11.581Z" style="fill:white;fill-rule:nonzero;"/>
                </g>
                <g transform="matrix(1,0,0,1,824.042969,1708.174152)">
                    <path d="M20.145,3.691C33.406,1.712 45.036,10.963 46.935,23.568C48.874,36.455 39.885,48.475 27.045,50.388C14.205,52.301 2.397,43.576 0.314,30.873C-1.776,18.156 6.767,5.696 20.145,3.698L20.145,3.691ZM21.118,11.502C12.037,12.988 6.569,21.47 8.146,29.952C9.697,38.303 17.707,43.918 26.085,42.557C34.661,41.17 40.542,33.128 39.122,24.469C37.703,15.809 30.028,10.049 21.124,11.502L21.118,11.502Z" style="fill:white;fill-rule:nonzero;"/>
                </g>
                <g transform="matrix(1,0,0,1,843.710938,1683.794668)">
                    <path d="M7.872,19.681C7.872,22.199 6.105,23.718 4.146,23.823C2.017,23.941 0,22.324 0,19.911L0,4.137C0,1.875 1.787,0.317 3.706,0.218C5.848,0.106 7.859,1.71 7.859,4.137L7.872,19.681Z" style="fill:white;fill-rule:nonzero;"/>
                </g>
                <g transform="matrix(1,0,0,1,824.035156,1790.109055)">
                    <path d="M7.872,15.742C7.872,18.26 6.098,19.773 4.146,19.884C2.017,20.003 0,18.385 0,15.972L0,4.13C0,1.875 1.787,0.317 3.706,0.218C5.855,0.106 7.852,1.711 7.859,4.137L7.879,15.749L7.872,15.742Z" style="fill:white;fill-rule:nonzero;"/>
                </g>
                <g transform="matrix(1,0,0,1,863.382812,1790.109055)">
                    <path d="M7.872,15.742C7.872,18.26 6.098,19.773 4.146,19.884C2.017,20.003 0,18.385 0,15.972L0,4.13C0,1.875 1.787,0.317 3.706,0.218C5.855,0.106 7.852,1.711 7.859,4.137L7.879,15.749L7.872,15.742Z" style="fill:white;fill-rule:nonzero;"/>
                </g>
                <g transform="matrix(1,0,0,1,745.335938,1669.415775)">
                    <path d="M12.778,3.09C21.668,1.4 29.58,7.311 31.183,15.622C32.813,24.104 27.162,32.376 18.692,33.987C10.314,35.578 2.165,30.213 0.358,21.862C-1.455,13.479 3.756,4.8 12.778,3.084L12.778,3.09Z" style="fill:white;fill-rule:nonzero;"/>
                </g>
                <g transform="matrix(1,0,0,1,831.914062,1716.983147)">
                    <path d="M13.247,2.693C22.151,1.24 29.892,7.408 31.246,15.66C32.665,24.319 26.784,32.361 18.209,33.748C9.83,35.103 1.82,29.494 0.27,21.143C-1.307,12.661 4.166,4.179 13.241,2.693L13.247,2.693Z" style="fill:white;fill-rule:nonzero;"/>
                </g>
                <g transform="matrix(-0.928845,0.370468,0.370468,0.928845,817.945488,1646.280221)">
                    <path d="M3.968,1.204C1.537,1.21 0.01,3.164 0.029,5.111C0.048,7.305 1.787,9.074 3.968,9.061C5.98,9.051 7.697,7.503 7.889,5.501C8.081,3.499 6.534,1.199 3.968,1.204Z" style="fill:white;fill-rule:nonzero;"/>
                </g>
                <g transform="matrix(-0.928846,0.370467,0.370467,0.928846,833.683773,1646.280224)">
                    <path d="M3.968,1.204C1.537,1.21 0.01,3.164 0.029,5.111C0.048,7.305 1.787,9.074 3.968,9.061C5.98,9.051 7.697,7.503 7.889,5.501C8.081,3.499 6.534,1.199 3.968,1.204Z" style="fill:white;fill-rule:nonzero;"/>
                </g>
                <g transform="matrix(-0.928845,0.370468,0.370468,0.928845,849.425956,1646.280221)">
                    <path d="M3.968,1.204C1.537,1.21 0.01,3.164 0.029,5.111C0.048,7.305 1.787,9.074 3.968,9.061C5.98,9.051 7.697,7.503 7.889,5.501C8.081,3.499 6.534,1.199 3.968,1.204Z" style="fill:white;fill-rule:nonzero;"/>
                </g>
            </g>
        </g>
    </g>
</svg>
