<?xml version="1.0" encoding="UTF-8" standalone="no"?>
<!DOCTYPE svg PUBLIC "-//W3C//DTD SVG 1.1//EN" "http://www.w3.org/Graphics/SVG/1.1/DTD/svg11.dtd">
<svg width="100%" height="100%" viewBox="0 0 1434 1467" version="1.1" xmlns="http://www.w3.org/2000/svg" xmlns:xlink="http://www.w3.org/1999/xlink" xml:space="preserve" xmlns:serif="http://www.serif.com/" style="fill-rule:evenodd;clip-rule:evenodd;stroke-linejoin:round;stroke-miterlimit:2;">
    <g transform="matrix(1,0,0,1,-6058,-13600)">
        <g transform="matrix(8.333333,0,0,8.333333,0,0)">
            <g id="ico-conversa">
                <g transform="matrix(1,0,0,1,731.343262,1780.34024)">
                    <path d="M51.236,27.66L0.626,27.66L0,26.3C0,12.01 11.594,0.512 25.691,0.365C39.605,0.181 51.383,11.129 51.972,25.272C51.972,26.117 51.751,27.035 51.236,27.66ZM49.211,24.905C48.328,12.194 37.838,2.973 25.728,3.12C13.619,3.267 3.57,12.708 2.797,24.941L49.211,24.941L49.211,24.905Z" style="fill:white;fill-rule:nonzero;"/>
                </g>
                <g transform="matrix(1,0,0,1,830.464844,1780.195404)">
                    <path d="M50.941,27.804L0.663,27.804L0,26.445C0.037,11.861 11.999,0.253 26.428,0.51C40.488,0.694 52.082,12.339 51.972,26.666L50.941,27.804ZM49.174,25.049C48.291,12.339 37.801,3.192 25.765,3.265C13.729,3.339 3.533,12.816 2.761,25.086L49.174,25.086L49.174,25.049Z" style="fill:white;fill-rule:nonzero;"/>
                </g>
                <g transform="matrix(1,0,0,1,727,1632.000076)">
                    <path d="M159.78,106.717C159.78,111.492 156.467,114.945 151.719,114.945L8.282,114.945C3.791,114.982 0,111.823 0,107.194L0,15.539C0,11.278 3.754,8.008 7.877,8.008L81.491,8.008C81.233,3.857 84.178,-0 88.484,-0L164.859,-0C168.908,0.184 172,3.196 172,7.274L172,55.618C172,59.805 168.651,62.891 164.602,62.891L159.817,62.891L159.817,106.717L159.78,106.717ZM96.067,76.336L114.765,60.136L164.16,60.136C167.031,60.136 169.129,58.52 169.239,55.581L169.239,7.347C169.239,4.665 167.178,2.755 164.491,2.755L88.816,2.755C86.239,2.755 84.252,4.665 84.252,7.237L84.252,55.654C84.252,58.262 86.35,60.136 88.742,60.136L94.705,60.136C95.367,60.173 96.03,60.797 96.067,61.495L96.067,76.336ZM148.922,101.794C148.922,102.823 148.186,103.41 147.266,103.41L12.441,103.41C11.631,103.41 10.932,102.823 10.932,102.051L10.932,21.049C10.932,20.241 11.594,19.653 12.367,19.653L81.454,19.653L81.454,10.947L7.914,10.947C4.822,10.947 2.908,13.261 2.908,16.237L2.908,107.562C2.908,110.464 5.631,112.117 8.282,112.117L152.087,112.117C154.811,112.117 156.578,110.06 156.983,107.562L156.983,62.928L148.922,62.928L148.922,101.831L148.922,101.794ZM95.625,80.414C95.331,80.671 94.3,80.855 94.006,80.598C93.785,80.377 93.49,79.826 93.269,79.422L93.269,62.928L88.411,62.928C84.362,62.707 81.381,59.475 81.454,55.36L81.454,22.409L13.692,22.409L13.692,100.692L23.299,100.582C21.9,89.635 30.256,80.634 40.709,80.855C51.162,81.075 58.781,90.259 57.382,100.692L146.161,100.692L146.161,62.928L115.832,62.928L95.625,80.451L95.625,80.414ZM54.659,100.619C55.91,90.884 48.843,83.426 40.046,83.573C31.249,83.72 24.624,91.802 26.133,100.655L54.659,100.655L54.659,100.619Z" style="fill:white;fill-rule:nonzero;"/>
                </g>
                <g transform="matrix(1,0,0,1,745.17334,1752.236533)">
                    <path d="M10.315,1.983C17.198,0.917 23.198,5.73 24.228,12.158C25.259,18.587 20.658,24.979 14.07,26.008C7.481,27.036 1.371,22.628 0.193,16.163C-0.984,9.697 3.322,3.048 10.315,1.983ZM10.683,4.738C5.199,5.619 1.96,10.799 2.954,15.869C3.948,20.938 8.733,24.171 13.775,23.326C18.818,22.481 22.351,17.632 21.505,12.526C20.658,7.42 16.057,3.893 10.683,4.775L10.683,4.738Z" style="fill:white;fill-rule:nonzero;"/>
                </g>
                <g transform="matrix(1,0,0,1,844.263184,1752.298124)">
                    <path d="M10.421,1.921C17.377,0.892 23.34,5.815 24.224,12.244C25.107,18.672 20.506,25.028 13.881,25.983C7.256,26.938 1.182,22.419 0.152,15.917C-0.879,9.415 3.428,2.95 10.421,1.921ZM10.752,4.676C5.305,5.521 2.029,10.517 2.875,15.623C3.722,20.73 8.544,24.109 13.586,23.301C18.629,22.493 22.236,17.827 21.5,12.611C20.801,7.688 16.2,3.831 10.752,4.676Z" style="fill:white;fill-rule:nonzero;"/>
                </g>
                <g transform="matrix(1,0,0,1,756.163086,1686.538404)">
                    <path d="M9.337,2.034C15.668,0.932 21.226,5.341 22.22,11.145C23.214,16.949 19.128,22.974 13.165,24.039C7.202,25.104 1.387,21.137 0.209,15.222C-0.969,9.308 2.933,3.136 9.337,2.034ZM9.337,4.826C4.442,5.928 1.829,10.704 3.006,15.186C4.184,19.667 8.601,22.312 13.092,21.247C17.582,20.182 20.453,15.737 19.422,11.181C18.392,6.626 14.085,3.724 9.337,4.826Z" style="fill:white;fill-rule:nonzero;"/>
                </g>
                <g transform="matrix(1,0,0,1,821.336914,1647.575967)">
                    <path d="M63.272,2.755L1.362,2.755C0.699,2.755 0,1.91 0,1.469C0,0.918 0.663,-0 1.399,-0L63.198,-0C63.897,-0 64.633,0.661 64.67,1.139C64.744,1.8 64.155,2.755 63.235,2.755L63.272,2.755Z" style="fill:white;fill-rule:nonzero;"/>
                </g>
                <g transform="matrix(1,0,0,1,821.336914,1662.0496)">
                    <path d="M63.419,2.755L1.362,2.755C0.699,2.755 0,1.873 0,1.433C0,0.992 0.626,-0 1.215,-0L63.235,-0C63.934,-0 64.56,0.624 64.707,1.102C64.854,1.58 64.376,2.755 63.419,2.755Z" style="fill:white;fill-rule:nonzero;"/>
                </g>
                <g transform="matrix(1,0,0,1,821.324707,1676.560342)">
                    <path d="M37.077,2.755L1.448,2.755C0.895,2.755 0.123,2.02 0.012,1.58C-0.098,1.029 0.564,-0 1.3,-0L37.114,-0C37.887,-0 38.549,0.698 38.549,1.322C38.549,1.984 37.887,2.755 37.04,2.755L37.077,2.755Z" style="fill:white;fill-rule:nonzero;"/>
                </g>
            </g>
        </g>
    </g>
</svg>
