<?xml version="1.0" encoding="UTF-8" standalone="no"?>
<!DOCTYPE svg PUBLIC "-//W3C//DTD SVG 1.1//EN" "http://www.w3.org/Graphics/SVG/1.1/DTD/svg11.dtd">
<svg width="100%" height="100%" viewBox="0 0 1359 1350" version="1.1" xmlns="http://www.w3.org/2000/svg" xmlns:xlink="http://www.w3.org/1999/xlink" xml:space="preserve" xmlns:serif="http://www.serif.com/" style="fill-rule:evenodd;clip-rule:evenodd;stroke-linejoin:round;stroke-miterlimit:2;">
    <g transform="matrix(1,0,0,1,-6050,-9250)">
        <g transform="matrix(8.333333,0,0,8.333333,0,0)">
            <g id="ico-academico">
                <g transform="matrix(1,0,0,1,726.004517,1110.000046)">
                    <path d="M83.316,145.672C82.081,146.492 80.915,146.492 79.776,145.738L64.199,135.431C49.03,125.395 30.194,122.948 12.707,127.887L3.212,130.57C1.591,131.029 0,129.746 0,127.979L0,26.202C0,25.055 0.653,24.178 1.534,23.75C6.02,21.577 10.739,20.691 15.778,20.94L15.778,2.937C15.677,1.361 16.725,-0 18.394,-0C43.886,0.039 67.529,12.815 81.493,34.135C95.444,12.824 119.114,0.052 144.589,-0C146.131,-0 147.156,1.169 147.222,2.614L147.222,20.931C152.331,20.704 157.146,21.573 161.672,23.863C162.426,24.243 162.996,25.199 162.996,26.202L162.969,127.83C161.567,144.786 149.18,158.448 132.784,161.402C115.893,164.457 99.204,155.56 92.316,139.703L83.316,145.668L83.316,145.672ZM55.243,84.161L55.178,71.363L38.343,65.093C37.23,64.679 36.648,63.352 36.823,62.279C36.976,61.323 37.743,60.555 38.852,60.145L78.812,45.266L78.864,39.881C66.78,19.339 45.095,6.187 21.032,5.297L21.032,104.551C44.044,105.455 65.036,116.494 78.838,134.847L78.878,96.627C74.097,96.374 69.562,95.62 65.154,94.018C60.817,92.395 55.265,88.656 55.243,84.161ZM113.085,73.798L113.006,69.448L107.783,71.411L107.726,84.292C107.717,86.491 106.179,88.533 104.637,89.956C99.559,94.646 91.172,96.235 84.114,96.627L84.114,134.742L89.494,128.389C88.399,115.377 94.511,102.924 104.825,95.65C115.832,87.892 129.77,86.705 141.951,92.417L141.951,5.288C117.896,6.213 96.181,19.321 84.122,39.881L84.105,45.209L124.604,60.307C125.682,60.708 126.225,61.93 126.186,62.863C126.146,63.797 125.397,64.827 124.429,65.189L118.277,67.489L118.286,73.859C119.968,74.946 120.976,76.621 120.919,78.55C120.867,80.304 119.881,81.884 118.286,82.931L118.286,88.843L113.041,88.843L113.006,82.817C111.17,81.774 110.394,80.077 110.408,78.236C110.421,76.499 111.464,74.902 113.08,73.798L113.085,73.798ZM70.452,133.132C57.346,117.999 38.085,109.87 18.451,109.722C16.83,109.696 15.839,108.692 15.769,107.073L15.769,26.172C12.155,25.967 8.619,26.433 5.254,27.821L5.254,124.549L13.815,122.219C33.572,117.301 53.569,121.477 70.447,133.136L70.452,133.132ZM157.725,106.484L157.738,27.821C154.359,26.433 150.837,25.967 147.217,26.172L147.217,95.454C151.533,98.39 154.828,102.213 157.725,106.489L157.725,106.484ZM116.007,62.715L81.52,49.826L46.98,62.715L81.493,75.613L116.007,62.715ZM100.172,86.976C101.005,86.234 102.473,85.008 102.477,83.952L102.53,73.357L81.498,81.172L60.453,73.34L60.506,83.961C60.51,84.999 61.987,86.229 62.731,86.901C65.181,88.389 67.56,89.463 70.377,90.139C79.592,92.369 91.786,92.085 100.172,86.976ZM122.9,94.249C105.286,96.095 92.881,111.891 94.835,128.952C96.79,146.012 112.296,158.405 129.472,156.611C146.727,154.809 159.39,139.341 157.562,122.153C155.735,104.966 140.43,92.412 122.9,94.249Z" style="fill:white;fill-rule:nonzero;"/>
                </g>
                <g transform="matrix(1,0,0,1,828.548828,1206.907845)">
                    <path d="M24.386,33.741C24.093,33.554 23.238,33.532 22.914,33.715L18.248,47.652C17.98,48.446 17.06,49.209 16.442,49.353C15.706,49.528 14.422,49.214 13.919,48.712L9.76,44.576L3.433,46.687C2.518,46.993 1.238,46.631 0.651,45.976C0.024,45.278 -0.208,44.052 0.213,43.105L8.959,23.57C6.4,16.929 8.507,9.66 14.041,5.427C19.601,1.173 27.409,1.094 33.049,5.283C38.71,9.485 40.909,16.855 38.32,23.566L47.166,43.345C47.517,44.13 47.135,45.435 46.636,45.972C46.027,46.631 44.769,46.997 43.845,46.687L37.522,44.58L33.368,48.716C32.851,49.231 31.607,49.532 30.818,49.353C30.196,49.214 29.403,48.402 29.031,47.687L24.386,33.741ZM22.647,7.469C16.543,8.063 12.512,13.456 13.213,19.146C13.914,24.835 19.006,28.832 24.754,28.23C30.503,27.628 34.736,22.558 34.078,16.698C33.474,11.305 28.628,6.889 22.642,7.474L22.647,7.469ZM14.624,41.914L17.783,32.476C15.754,31.45 14.072,30.338 12.332,28.837L7.539,39.697C9.094,39.344 10.702,38.458 11.539,39.195L14.628,41.914L14.624,41.914ZM35.651,39.252C36.576,38.427 38.219,39.37 39.748,39.706L34.976,28.88C33.32,30.25 31.594,31.446 29.504,32.485L32.663,41.923L35.651,39.257L35.651,39.252Z" style="fill:white;fill-rule:nonzero;"/>
                </g>
            </g>
        </g>
    </g>
</svg>
