<?xml version="1.0" encoding="UTF-8" standalone="no"?>
<!DOCTYPE svg PUBLIC "-//W3C//DTD SVG 1.1//EN" "http://www.w3.org/Graphics/SVG/1.1/DTD/svg11.dtd">
<svg width="100%" height="100%" viewBox="0 0 1600 1459" version="1.1" xmlns="http://www.w3.org/2000/svg" xmlns:xlink="http://www.w3.org/1999/xlink" xml:space="preserve" xmlns:serif="http://www.serif.com/" style="fill-rule:evenodd;clip-rule:evenodd;stroke-linejoin:round;stroke-miterlimit:2;">
    <g transform="matrix(1,0,0,1,-1475,-13533)">
        <g transform="matrix(8.333333,0,0,8.333333,0,0)">
            <g id="ico-mensajes">
                <g transform="matrix(1,0,0,1,190.139648,1643.514607)">
                    <path d="M52.25,5.633C54.255,5.633 55.125,3.861 54.98,2.515C54.83,1.084 53.74,0 52.075,0L3.025,0C1.2,0 0.025,1.18 0,2.817C-0.02,4.037 1.005,5.633 2.665,5.633L52.25,5.633Z" style="fill:white;fill-rule:nonzero;"/>
                </g>
                <g transform="matrix(1,0,0,1,177,1618.799362)">
                    <path d="M192,43.477L192,50.998C189.79,74.544 168.25,92.176 144.34,88.827L144.325,100.214C144.325,101.88 142.91,103.035 141.565,103.025C139.86,103.015 138.57,101.705 138.73,99.867L138.67,87.652C124.935,83.701 114.405,73.304 110.075,59.804L8.835,59.804C7.15,59.809 5.625,60.888 5.625,62.725L5.625,145.634C5.62,147.447 6.93,148.702 8.62,148.702L27.365,148.702C29.16,148.702 30.36,149.942 30.36,151.704L30.4,173.357L54.9,148.772L68.27,148.672C69.935,148.657 71.205,149.681 71.39,151.162C71.585,152.753 70.435,154.34 68.645,154.34L57.315,154.34L32.805,178.885C31.445,180.246 29.225,180.502 27.625,179.869C26.295,179.342 24.81,177.53 24.805,175.657L24.735,154.355L8.24,154.305C4.125,154.295 1.105,151.127 0,147.577L0,61.144C1.04,56.912 4.515,54.171 9.1,54.171L108.71,54.171C104.77,30.238 121.59,8.419 144.93,5.522C168.505,2.6 189.685,19.901 192,43.477ZM147.005,10.984C126.735,12.716 112.13,30.7 113.905,50.455C115.69,70.322 133.22,85.102 152.97,83.49C172.98,81.859 187.97,64.156 186.245,44.119C184.545,24.404 167.205,9.262 147.01,10.989L147.005,10.984Z" style="fill:white;fill-rule:nonzero;"/>
                </g>
                <g transform="matrix(1,0,0,1,177,1630.446346)">
                    <path d="M0,28.451L0,3.273C1.1,0.889 2.92,-0 5.68,-0L78.995,0.015C81.69,0.015 83.675,2.159 83.68,4.769L83.68,26.955C83.685,29.526 81.69,31.73 79.11,31.74L69.025,31.765C67.21,31.765 66.055,30.143 66.23,28.652C66.405,27.161 67.63,26.021 69.37,26.132L78.06,26.132L78.055,5.653L5.625,5.653L5.625,26.132L55.47,26.132C57.255,26.187 58.285,27.452 58.285,29.019C58.285,30.369 57.175,31.755 55.44,31.76L5.665,31.78C2.93,31.78 1.07,30.866 0.005,28.456L0,28.451Z" style="fill:white;fill-rule:nonzero;"/>
                </g>
                <g transform="matrix(1,0,0,1,255.969727,1729.395508)">
                    <path d="M3.01,43.754C0.995,43.754 0.015,42.413 0,40.927C-0.015,39.441 1.05,38.116 2.815,38.116L56.74,38.116C58.475,38.116 59.73,36.78 59.73,35.063L59.74,2.801C59.74,1.054 61.09,0.005 62.595,0C63.95,0 65.365,1.14 65.365,2.827L65.355,35.108C65.355,39.903 61.6,43.749 56.755,43.749L3.01,43.759L3.01,43.754Z" style="fill:white;fill-rule:nonzero;"/>
                </g>
                <g transform="matrix(1,0,0,1,206.193359,1703.4746)">
                    <path d="M83.302,5.633L2.817,5.633C1.037,5.643 0.042,4.283 0.002,2.942C-0.053,1.18 1.162,0 3.117,0L82.872,0C84.677,0 85.802,1.029 85.947,2.616C86.052,3.76 85.262,5.633 83.302,5.633Z" style="fill:white;fill-rule:nonzero;"/>
                </g>
                <g transform="matrix(1,0,0,1,206.189453,1720.454094)">
                    <path d="M82.871,5.643L2.766,5.643C1.026,5.638 0.026,4.167 0.001,2.882C-0.029,1.16 1.206,0 3.111,0L82.876,0C84.786,0 85.981,1.21 85.946,2.867C85.911,4.523 84.771,5.643 82.866,5.643L82.871,5.643Z" style="fill:white;fill-rule:nonzero;"/>
                </g>
                <g transform="matrix(1,0,0,1,206.174805,1737.433335)">
                    <path d="M45.22,5.643L2.75,5.643C1.055,5.643 -0.005,4.152 0,2.827C0.005,1.501 1.06,0.015 2.75,0.01L45.05,0C46.72,0 47.86,1.079 48.015,2.5C48.17,3.921 47.24,5.638 45.225,5.638L45.22,5.643Z" style="fill:white;fill-rule:nonzero;"/>
                </g>
                <g transform="matrix(1,0,0,1,190.139648,1643.509862)">
                    <path d="M52.255,5.638L2.665,5.638C1.005,5.638 -0.02,4.041 0,2.821C0.025,1.185 1.2,-0 3.025,-0L52.08,-0C53.745,-0 54.835,1.084 54.985,2.52C55.125,3.866 54.255,5.638 52.255,5.638Z" style="fill:white;fill-rule:nonzero;"/>
                </g>
                <g transform="matrix(1,0,0,1,310.996094,1669.960597)">
                    <path d="M27.324,14.421C20.984,8.281 11.049,8.311 4.764,14.496C3.664,15.581 1.914,15.491 0.859,14.496C-0.126,13.568 -0.411,11.71 0.794,10.52C9.169,2.206 22.599,2.106 31.109,10.244C32.374,11.454 32.469,13.151 31.404,14.336C30.339,15.521 28.564,15.621 27.329,14.426L27.324,14.421Z" style="fill:white;fill-rule:nonzero;"/>
                </g>
                <g transform="matrix(1,0,0,1,301.449219,1653.004572)">
                    <path d="M9.271,6.892C14.786,7.208 11.961,0.235 16.356,0.29C17.756,0.305 19.071,1.575 19.031,3.262C18.906,8.539 14.631,12.515 9.576,12.545C4.521,12.575 0.131,8.584 0.001,3.282C-0.039,1.636 1.121,0.456 2.521,0.305C3.991,0.145 5.521,1.204 5.586,2.926C5.671,5.125 7.191,6.777 9.276,6.897L9.271,6.892Z" style="fill:white;fill-rule:nonzero;"/>
                </g>
                <g transform="matrix(1,0,0,1,333.643555,1652.980988)">
                    <path d="M9.327,6.916C14.752,7.142 12.057,0.64 16.087,0.319C17.312,0.223 18.922,1.212 19.002,2.719C19.277,7.95 15.212,12.177 10.277,12.534C5.027,12.915 0.417,9.07 0.012,3.688C-0.123,1.865 0.907,0.52 2.577,0.324C4.037,0.153 5.532,1.233 5.612,2.99C5.712,5.169 7.292,6.825 9.332,6.911L9.327,6.916Z" style="fill:white;fill-rule:nonzero;"/>
                </g>
            </g>
        </g>
    </g>
</svg>
