<?xml version="1.0" encoding="UTF-8" standalone="no"?>
<!DOCTYPE svg PUBLIC "-//W3C//DTD SVG 1.1//EN" "http://www.w3.org/Graphics/SVG/1.1/DTD/svg11.dtd">
<svg width="100%" height="100%" viewBox="0 0 1726 1038" version="1.1" xmlns="http://www.w3.org/2000/svg" xmlns:xlink="http://www.w3.org/1999/xlink" xml:space="preserve" xmlns:serif="http://www.serif.com/" style="fill-rule:evenodd;clip-rule:evenodd;stroke-linejoin:round;stroke-miterlimit:2;">
    <g transform="matrix(1,0,0,1,-1416,-13608)">
        <g transform="matrix(8.333333,0,0,8.333333,0,0)">
            <g id="ico-casco" transform="matrix(1,0,0,1,170,1632.999969)">
                <path d="M207,124.484L0,124.484C0,90.543 16.26,60.438 41.387,41.516L41.387,83L62.097,83L62.097,29.383C68.673,26.497 75.576,24.267 82.807,22.791L82.807,0L124.193,0L124.193,22.824C131.391,24.3 138.327,26.497 144.903,29.416L144.903,83L165.613,83L165.613,41.516C190.772,60.438 207,90.543 207,124.484Z" style="fill:white;fill-rule:nonzero;"/>
            </g>
        </g>
    </g>
</svg>
