<?xml version="1.0" encoding="UTF-8" standalone="no"?>
<!DOCTYPE svg PUBLIC "-//W3C//DTD SVG 1.1//EN" "http://www.w3.org/Graphics/SVG/1.1/DTD/svg11.dtd">
<svg width="100%" height="100%" viewBox="0 0 1343 1400" version="1.1" xmlns="http://www.w3.org/2000/svg" xmlns:xlink="http://www.w3.org/1999/xlink" xml:space="preserve" xmlns:serif="http://www.serif.com/" style="fill-rule:evenodd;clip-rule:evenodd;stroke-linejoin:round;stroke-miterlimit:2;">
    <g transform="matrix(1,0,0,1,-1616,-13550)">
        <g transform="matrix(8.333333,0,0,8.333333,0,0)">
            <g id="ico-memoria">
                <g transform="matrix(1,0,0,1,245.342773,1669.740265)">
                    <path d="M50.625,54.695C53.026,54.695 54.695,52.556 54.69,50.425L54.673,24.233C54.673,21.668 52.474,20.108 50.143,20.108L25.003,20.121L25.003,4.493C25.003,1.92 23.15,0.022 20.578,-0L4.285,0.018C2.042,0.018 0.031,1.889 0.026,4.186L0,20.879C0.175,23.19 1.936,25.026 4.298,25.031L20.075,25.048L20.083,50.36C20.083,52.622 21.867,54.708 24.232,54.708L50.616,54.695L50.625,54.695Z" style="fill:white;fill-rule:nonzero;"/>
                </g>
                <g transform="matrix(1,0,0,1,193.994141,1628.967529)">
                    <path d="M102.372,165.033L81.154,165.033C80.295,164.41 79.52,163.511 79.528,162.56C79.537,161.355 80.51,160.123 81.82,160.118L101.518,160.101L101.601,138.757C101.632,130.954 104.418,123.466 109.505,117.597C117.527,108.343 122.249,97.002 122.263,84.631L122.289,61.67C122.293,56.681 121.601,51.956 120.23,47.217L105.439,47.195C102.836,47.195 101.158,45.121 101.158,42.636L101.158,20.687C85.452,9.771 65.184,8.566 48.229,18.022C32.965,26.535 22.875,43.131 22.792,61.411L22.753,69.88C22.713,78.884 18.919,87.192 12.619,93.465L5.679,100.373C5.053,101 4.799,102.127 5.101,103.065C5.329,103.771 6.428,104.507 7.401,104.516L18.205,104.586C20.965,104.604 22.788,107.348 22.788,109.842L22.788,118.43C22.775,130.467 32.409,140.124 44.448,140.186C50.788,140.217 56.142,145.174 56.199,151.548L56.278,160.101L70.017,160.092C71.388,160.092 72.54,160.636 72.904,161.973C73.233,163.178 72.427,164.344 71.178,165.024L55.244,165.024C53.32,164.169 51.375,162.534 51.366,160.11L51.336,152.175C51.322,148.546 48.584,145.148 44.742,145.148C29.749,145.157 17.793,133.137 17.841,118.075L17.868,109.447L7.445,109.447C4.26,109.447 1.653,107.532 0.579,104.928C-0.669,101.899 0.176,98.935 2.384,96.73L9.289,89.826C14.696,84.425 17.819,77.271 17.841,69.56L17.863,61.762C17.92,41.61 28.843,23.295 45.671,13.822C64.251,3.367 86.683,4.647 103.796,16.544C105.176,17.504 106.065,18.697 106.065,20.332L106.065,42.281L120.834,42.294C122.666,42.294 124.23,43.57 124.76,45.292C126.372,50.526 127.191,55.796 127.191,61.341L127.191,84.307C127.183,97.914 122.157,110.548 113.281,120.722C109.01,125.619 106.574,131.892 106.534,138.437L106.407,160.096C106.394,162.564 104.431,164.182 102.368,165.024L102.372,165.033Z" style="fill:white;fill-rule:nonzero;"/>
                </g>
                <g transform="matrix(1,0,0,1,310.351562,1626.004376)">
                    <path d="M29.569,29.678L29.731,23.277C29.573,21.826 30.642,20.752 31.873,20.608C33.104,20.463 34.607,21.423 34.603,22.984L34.576,30.471C34.568,33.009 32.434,34.614 30.059,34.609L4.149,34.583C1.893,34.583 0.013,32.667 0.009,30.431L0,4.335C0,2.065 1.814,0 4.153,0L30.37,0C32.741,0 34.585,1.964 34.589,4.239L34.603,11.468C34.603,12.936 33.433,13.98 32.18,14.006C30.795,14.032 29.704,12.998 29.678,11.49L29.669,4.914L4.907,4.914L4.907,29.669L29.551,29.669L29.569,29.678Z" style="fill:white;fill-rule:nonzero;"/>
                </g>
                <g transform="matrix(1,0,0,1,329.992188,1678.23572)">
                    <path d="M20.771,24.991L4.188,24.991C1.757,24.987 -0.004,22.918 0,20.612L0.018,4.213C0.018,1.964 1.937,0 4.21,0L20.872,0.009C23.396,0.009 25.012,2.179 25.008,4.507L24.99,20.617C24.99,22.892 23.325,24.991 20.771,24.991ZM20.088,20.06L20.066,4.914L4.929,4.914L4.929,20.077L20.092,20.06L20.088,20.06Z" style="fill:white;fill-rule:nonzero;"/>
                </g>
                <g transform="matrix(1,0,0,1,245.351562,1669.740265)">
                    <path d="M50.616,54.695L24.232,54.708C21.867,54.708 20.083,52.622 20.083,50.36L20.075,25.048L4.298,25.031C1.932,25.031 0.175,23.194 0,20.879L0.026,4.186C0.026,1.885 2.042,0.018 4.285,0.018L20.578,-0C23.15,0.026 25.003,1.92 25.003,4.493L25.003,20.121L50.138,20.108C52.465,20.108 54.664,21.668 54.669,24.233L54.686,50.425C54.686,52.556 53.021,54.695 50.62,54.695L50.616,54.695ZM20.083,20.09L20.083,4.932L4.92,4.923L4.933,20.13L20.079,20.09L20.083,20.09ZM49.77,49.785L49.748,25.035L24.999,25.035L24.999,49.803L49.77,49.785Z" style="fill:white;fill-rule:nonzero;"/>
                </g>
                <g transform="matrix(-1,0.000867,0.000867,1,350.073711,1683.143392)">
                    <rect x="0.007" y="-0.002" width="15.15" height="15.154" style="fill:white;"/>
                </g>
                <g transform="matrix(-1,0.000708,0.000708,1,295.113069,1694.766578)">
                    <rect x="0.009" y="-0.004" width="24.754" height="24.763" style="fill:white;"/>
                </g>
                <g transform="matrix(-0.999997,0.002315,0.002315,0.999997,265.418141,1674.645503)">
                    <rect x="0.018" y="-0.017" width="15.128" height="15.203" style="fill:white;"/>
                </g>
            </g>
        </g>
    </g>
</svg>
