<?xml version="1.0" encoding="UTF-8" standalone="no"?>
<!DOCTYPE svg PUBLIC "-//W3C//DTD SVG 1.1//EN" "http://www.w3.org/Graphics/SVG/1.1/DTD/svg11.dtd">
<svg width="100%" height="100%" viewBox="0 0 826 1409" version="1.1" xmlns="http://www.w3.org/2000/svg" xmlns:xlink="http://www.w3.org/1999/xlink" xml:space="preserve" xmlns:serif="http://www.serif.com/" style="fill-rule:evenodd;clip-rule:evenodd;stroke-linejoin:round;stroke-miterlimit:2;">
    <g transform="matrix(1,0,0,1,-6358,-13616)">
        <g transform="matrix(8.333333,0,0,8.333333,0,0)">
            <g id="ico-lapices">
                <g transform="matrix(1,0,0,1,763,1774.811833)">
                    <path d="M0,-0L21.105,28.188L42.184,-0L0,-0Z" style="fill:white;fill-rule:nonzero;"/>
                </g>
                <g transform="matrix(1,0,0,1,763,1633.999916)">
                    <path d="M42.184,21.154L42.184,126.847L0,126.847L0,21.154C0,9.474 9.452,0 21.105,0C32.758,0 42.21,9.474 42.21,21.154L42.184,21.154Z" style="fill:white;fill-rule:nonzero;"/>
                </g>
                <g transform="matrix(1,0,0,1,819.815674,1774.811833)">
                    <path d="M0,-0L21.079,28.188L42.184,-0L0,-0Z" style="fill:white;fill-rule:nonzero;"/>
                </g>
                <g transform="matrix(1,0,0,1,819.763916,1633.999916)">
                    <path d="M42.184,21.154L42.184,126.847L0,126.847L0,21.154C0,9.474 9.452,0 21.105,0C32.758,0 42.21,9.474 42.21,21.154L42.184,21.154Z" style="fill:white;fill-rule:nonzero;"/>
                </g>
            </g>
        </g>
    </g>
</svg>
