<?xml version="1.0" encoding="UTF-8" standalone="no"?>
<!DOCTYPE svg PUBLIC "-//W3C//DTD SVG 1.1//EN" "http://www.w3.org/Graphics/SVG/1.1/DTD/svg11.dtd">
<svg width="100%" height="100%" viewBox="0 0 1492 1484" version="1.1" xmlns="http://www.w3.org/2000/svg" xmlns:xlink="http://www.w3.org/1999/xlink" xml:space="preserve" xmlns:serif="http://www.serif.com/" style="fill-rule:evenodd;clip-rule:evenodd;stroke-linejoin:round;stroke-miterlimit:2;">
    <g transform="matrix(1,0,0,1,-6000,-13575)">
        <g transform="matrix(8.333333,0,0,8.333333,0,0)">
            <g id="ico-tiempo">
                <g transform="matrix(1,0,0,1,799.203125,1660.094802)">
                    <path d="M58.335,81.324L11.647,57.16L11.618,5.767C11.618,2.398 8.378,0.169 5.549,0.347C2.719,0.526 0.024,2.818 0.019,6.114L0,64.278L53.278,91.82C56.257,93.36 59.718,91.772 61.01,89.036C62.302,86.299 61.458,82.94 58.339,81.329L58.335,81.324ZM95.102,29.897L93.54,25.665C92.118,21.818 88.088,19.84 84.318,21.196C80.775,22.47 78.543,26.451 79.902,30.196L81.782,35.365C83.161,39.163 87.548,40.79 91.173,39.322C94.798,37.855 96.567,33.859 95.106,29.897L95.102,29.897ZM99.797,60.576L99.729,54.853C99.681,50.828 96.032,48.053 92.31,48.188C88.589,48.323 85.335,51.436 85.374,55.427L85.417,60.388C85.455,64.466 88.705,67.526 92.643,67.555C96.287,67.584 99.84,64.669 99.792,60.572L99.797,60.576ZM94.157,89.895L95.627,85.595C96.991,81.608 94.846,77.53 91.057,76.314C87.268,75.098 83.296,77.154 81.965,81.015L80.442,85.445C79.078,89.412 81.228,93.505 84.973,94.716C88.719,95.927 92.778,93.929 94.157,89.895ZM78.668,116.433L81.695,112.635C84.27,109.402 83.614,104.928 80.591,102.501C77.559,100.068 73.062,100.425 70.54,103.557L67.412,107.447C64.818,110.671 65.402,115.251 68.583,117.736C71.591,120.087 76.079,119.686 78.668,116.438L78.668,116.433ZM55.013,136.172L59.467,133.465C62.847,131.409 63.83,127.075 62.013,123.856C60.195,120.637 55.847,118.88 52.516,120.912L47.522,123.957C44.119,126.032 43.323,130.516 45.324,133.711C47.324,136.906 51.557,138.271 55.013,136.177L55.013,136.172ZM26.687,146.688L31.72,145.583C35.697,144.709 37.934,140.752 37.085,136.992C36.237,133.233 32.506,130.694 28.524,131.568L23.669,132.63C19.683,133.498 17.316,137.436 18.179,141.239C19.017,144.927 22.643,147.576 26.692,146.688L26.687,146.688Z" style="fill:white;fill-rule:nonzero;"/>
                </g>
                <g transform="matrix(1,0,0,1,720,1606.384994)">
                    <path d="M0.024,117.481L0,107.4L0.193,104.9C1.499,87.873 7.824,71.687 18.135,58.111C46.823,20.323 99.937,11.308 139.316,37.841L145.318,29.154C145.665,28.652 146.779,28.098 147.314,28.165C147.849,28.233 148.775,29.043 148.953,29.69L155.779,54.289C156.43,56.629 154.694,59.057 152.289,59.274L126.899,61.557C126.281,61.61 125.298,61.103 125.023,60.698C124.749,60.292 124.715,59.013 124.994,58.603L131.083,49.67C109.79,35.708 83.643,33.02 59.429,43.362C39.491,51.876 22.966,70.118 16.954,92.458C12.953,107.332 13.613,123.128 18.834,137.828C27.796,163.059 49.797,181.509 76.07,186.325C80.037,187.054 82.476,190.644 81.97,194.404C81.464,198.163 78.061,201.18 74.035,200.533C60.456,198.337 47.816,192.758 36.786,184.742C14.891,168.831 1.726,144.256 0.024,117.481Z" style="fill:white;fill-rule:nonzero;"/>
                </g>
                <g transform="matrix(1,0,0,1,799.198242,1660.089897)">
                    <path d="M58.339,81.329C61.463,82.945 62.278,86.362 61.01,89.036C59.742,91.709 56.252,93.36 53.278,91.82L0,64.278L0.019,6.114C0.019,2.818 2.618,0.526 5.549,0.347C8.48,0.169 11.618,2.398 11.618,5.767L11.647,57.16L58.335,81.324L58.339,81.329Z" style="fill:white;fill-rule:nonzero;"/>
                </g>
                <g transform="matrix(1,0,0,1,864.985352,1759.317653)">
                    <path d="M12.886,17.21C10.297,20.458 5.809,20.859 2.801,18.509C-0.381,16.023 -0.964,11.448 1.63,8.22L4.758,4.33C7.279,1.198 11.777,0.84 14.809,3.273C17.832,5.7 18.487,10.174 15.913,13.408L12.886,17.206L12.886,17.21Z" style="fill:white;fill-rule:nonzero;"/>
                </g>
                <g transform="matrix(1,0,0,1,817.200195,1790.09776)">
                    <path d="M8.69,16.685C4.641,17.573 1.011,14.924 0.177,11.236C-0.686,7.438 1.686,3.5 5.667,2.627L10.522,1.565C14.504,0.696 18.225,3.206 19.083,6.99C19.941,10.773 17.695,14.706 13.718,15.58L8.685,16.685L8.69,16.685Z" style="fill:white;fill-rule:nonzero;"/>
                </g>
                <g transform="matrix(1,0,0,1,879.218262,1734.302498)">
                    <path d="M14.142,15.687C12.763,19.722 8.844,21.768 4.958,20.508C1.073,19.249 -0.937,15.204 0.427,11.237L1.95,6.807C3.281,2.946 7.21,0.876 11.042,2.107C14.874,3.337 16.971,7.401 15.612,11.387L14.142,15.687Z" style="fill:white;fill-rule:nonzero;"/>
                </g>
                <g transform="matrix(1,0,0,1,878.696777,1679.004683)">
                    <path d="M15.608,10.987C17.068,14.945 15.251,18.965 11.674,20.413C8.097,21.86 3.662,20.253 2.283,16.455L0.403,11.287C-0.956,7.542 1.271,3.56 4.819,2.286C8.589,0.93 12.624,2.913 14.041,6.755L15.603,10.987L15.608,10.987Z" style="fill:white;fill-rule:nonzero;"/>
                </g>
                <g transform="matrix(1,0,0,1,884.581055,1708.012494)">
                    <path d="M14.419,12.659C14.467,16.756 10.914,19.671 7.27,19.642C3.331,19.608 0.077,16.553 0.044,12.475L0,7.514C-0.038,3.523 3.114,0.415 6.937,0.275C10.76,0.135 14.308,2.91 14.356,6.94L14.424,12.664L14.419,12.659Z" style="fill:white;fill-rule:nonzero;"/>
                </g>
                <g transform="matrix(1,0,0,1,843.450684,1777.825191)">
                    <path d="M10.765,18.442C7.314,20.541 3.062,19.141 1.076,15.976C-0.91,12.81 -0.129,8.297 3.274,6.222L8.268,3.177C11.599,1.145 15.89,2.805 17.765,6.121C19.64,9.436 18.599,13.678 15.22,15.729L10.765,18.437L10.765,18.442Z" style="fill:white;fill-rule:nonzero;"/>
                </g>
            </g>
        </g>
    </g>
</svg>
