<?xml version="1.0" encoding="UTF-8" standalone="no"?>
<!DOCTYPE svg PUBLIC "-//W3C//DTD SVG 1.1//EN" "http://www.w3.org/Graphics/SVG/1.1/DTD/svg11.dtd">
<svg width="100%" height="100%" viewBox="0 0 1993 1409" version="1.1" xmlns="http://www.w3.org/2000/svg" xmlns:xlink="http://www.w3.org/1999/xlink" xml:space="preserve" xmlns:serif="http://www.serif.com/" style="fill-rule:evenodd;clip-rule:evenodd;stroke-linejoin:round;stroke-miterlimit:2;">
    <g transform="matrix(1,0,0,1,-5766,-9216)">
        <g transform="matrix(8.333333,0,0,8.333333,0,0)">
            <g id="ico-virtual">
                <g transform="matrix(1,0,0,1,692,1106.000107)">
                    <path d="M239,49.498L206.863,81.631C184.492,59.293 153.606,45.439 119.515,45.439C85.425,45.439 54.508,59.263 32.168,81.631L0,49.498C30.581,18.92 72.82,-0 119.485,-0C166.149,-0 208.419,18.92 239,49.498Z" style="fill:white;fill-rule:nonzero;"/>
                </g>
                <g transform="matrix(1,0,0,1,735.582031,1167.643364)">
                    <path d="M151.836,31.432L119.668,63.596C108.467,52.397 92.994,45.469 75.903,45.469C58.812,45.469 43.338,52.397 32.137,63.596L0,31.432C19.411,11.993 46.268,-0 75.903,-0C105.537,-0 132.395,12.023 151.805,31.432L151.836,31.432Z" style="fill:white;fill-rule:nonzero;"/>
                </g>
                <g transform="matrix(-0.707145,0.707069,0.707069,0.707145,818.17856,1213.201053)">
                    <path d="M2.767,38.968L48.43,38.968L48.435,-6.695C36.738,-6.695 25.063,-2.228 16.15,6.685C7.237,15.597 2.79,27.293 2.767,38.968Z" style="fill:white;fill-rule:nonzero;"/>
                </g>
            </g>
        </g>
    </g>
</svg>
