<?xml version="1.0" encoding="UTF-8" standalone="no"?>
<!DOCTYPE svg PUBLIC "-//W3C//DTD SVG 1.1//EN" "http://www.w3.org/Graphics/SVG/1.1/DTD/svg11.dtd">
<svg width="100%" height="100%" viewBox="0 0 1576 1568" version="1.1" xmlns="http://www.w3.org/2000/svg" xmlns:xlink="http://www.w3.org/1999/xlink" xml:space="preserve" xmlns:serif="http://www.serif.com/" style="fill-rule:evenodd;clip-rule:evenodd;stroke-linejoin:round;stroke-miterlimit:2;">
    <g transform="matrix(1,0,0,1,-5983,-13483)">
        <g transform="matrix(8.333333,0,0,8.333333,0,0)">
            <g id="ico-especial">
                <g transform="matrix(1,0,0,1,788.112793,1682.511803)">
                    <path d="M45.695,123.488L3.074,123.488C1.316,123.488 0,122.177 0,120.43L0,78.042C0.041,76.032 1.539,74.959 3.409,74.964L12.188,74.984L12.188,55.659L7.57,53.33C6.798,52.94 6.153,51.7 6.056,50.763L6.137,35.169C6.168,29.382 9.709,24.385 14.876,21.863C10.862,16.79 11.447,9.788 16.065,5.484C20.648,1.216 27.801,1.11 32.496,5.302C37.19,9.494 37.993,16.714 33.878,21.858C39.258,24.45 42.647,29.63 42.657,35.554L42.693,51.122C42.454,52.034 41.727,53.092 40.95,53.482L36.57,55.669L36.57,74.984L45.731,74.994C47.443,74.994 48.739,76.296 48.769,78.047L48.769,120.44C48.769,122.187 47.443,123.498 45.69,123.498L45.695,123.488ZM22.858,8.492C19.266,9.433 17.579,13.023 18.575,16.152C19.571,19.281 22.766,21.023 25.921,20.197C29.153,19.352 31.129,16.061 30.281,12.805C29.483,9.768 26.333,7.58 22.863,8.492L22.858,8.492ZM32.069,51.087L36.576,48.824L36.606,35.923C36.616,31.113 33.253,27.159 28.568,26.607L32.191,38.926L27.192,48.971C26.557,50.054 25.429,50.788 24.204,50.743C23.285,50.707 22.075,49.917 21.603,48.976L16.593,38.926L20.206,26.612C15.77,27.139 12.214,30.891 12.209,35.538L12.188,48.829L16.553,51.001C17.508,51.477 18.224,52.601 18.3,53.74L18.285,74.984L30.489,74.984L30.479,53.735C30.479,52.783 31.221,51.517 32.069,51.092L32.069,51.087ZM24.407,40.738L25.723,38.277L24.407,34.394C23.213,37.098 22.644,38.617 24.407,40.738ZM42.677,117.418L42.677,81.04L6.092,81.04L6.092,117.428L42.677,117.418Z" style="fill:white;fill-rule:nonzero;"/>
                </g>
                <g transform="matrix(1,0,0,1,718,1708.986706)">
                    <path d="M15.277,51.542L3.033,51.532C1.351,51.532 0,50.211 0,48.494L0,21.225C0,19.509 1.351,18.192 3.033,18.187L15.267,18.177C16.619,18.177 17.574,19.093 18.148,20.486L26.526,18.84L28.162,15.544L28.208,8.669C28.223,6.638 29.473,4.77 30.845,3.894C34.498,1.555 44.766,4.563 44.872,11.413L44.979,18.481L54.937,18.43C58.27,18.415 61.699,21.296 60.82,24.921L55.664,46.272C55.013,48.965 53.174,51.75 49.877,51.502L18.245,49.092C17.681,50.469 16.705,51.537 15.272,51.537L15.277,51.542ZM49.552,45.421L54.683,24.546L41.931,24.536C40.239,24.491 39.009,23.25 38.862,21.6L38.872,12.071C38.872,11.342 37.968,10.137 37.327,9.97L34.218,9.17C34.142,11.636 34.493,14.132 34.101,16.628C33.802,18.562 32.272,20.45 31.693,22.379C31.017,23.194 30.326,23.873 29.544,24.445L18.285,26.683L18.285,43.001L49.546,45.426L49.552,45.421ZM12.194,45.436L12.194,24.248L6.092,24.248L6.092,45.472L12.194,45.431L12.194,45.436Z" style="fill:white;fill-rule:nonzero;"/>
                </g>
                <g transform="matrix(1,0,0,1,846.032227,1709.0731)">
                    <path d="M57.935,51.446L45.695,51.456C44.263,51.456 43.272,50.403 42.713,49.005L11.477,51.415C8.053,51.679 6,49.147 5.289,46.175L0.122,24.516C-0.716,20.992 2.932,18.329 6.01,18.344L15.999,18.389L16.136,10.952C16.248,4.861 25.972,1.504 29.854,3.666C31.18,4.405 32.699,6.198 32.724,8.213L32.811,15.448L34.437,18.749L42.799,20.389C43.373,18.997 44.344,18.086 45.695,18.086L57.93,18.096C59.611,18.096 60.963,19.417 60.963,21.133L60.963,48.403C60.963,50.114 59.611,51.436 57.93,51.441L57.935,51.446ZM11.447,45.37L42.688,42.92L42.672,26.561L32.049,24.47C31.002,24.161 30.118,23.457 29.442,22.521C28.711,20.541 27.237,18.577 26.877,16.531C26.44,14.076 26.75,11.514 26.658,9.104L23.645,9.894C23.005,10.061 22.101,11.235 22.101,11.985L22.111,21.513C21.964,23.164 20.729,24.404 19.042,24.45L6.28,24.46L11.457,45.37L11.447,45.37ZM54.871,45.35L54.871,24.161L48.769,24.161L48.769,45.385L54.871,45.345L54.871,45.35Z" style="fill:white;fill-rule:nonzero;"/>
                </g>
                <g transform="matrix(1,0,0,1,785.105957,1617.906129)">
                    <path d="M27.455,46.841L14.205,54.086C12.935,54.779 11.573,54.906 10.394,54.01C9.414,53.266 9.185,51.894 9.414,50.491L11.939,35.079L0.65,23.637C0.045,23.024 -0.153,21.429 0.121,20.619C0.396,19.809 1.528,18.842 2.611,18.68L17.781,16.382L24.625,1.886C25.087,0.904 26.271,0.139 27.216,0.099C28.385,0.048 29.645,0.762 30.173,1.891L37.002,16.356L52.188,18.66C53.117,18.802 54.245,19.672 54.555,20.346C54.962,21.237 54.855,22.923 54.139,23.647L42.854,35.084L45.466,51.139C45.639,52.187 45.065,53.514 44.394,54.01C43.342,54.784 41.945,54.845 40.843,54.238L27.46,46.836L27.455,46.841ZM29.233,40.902L38.434,45.97L36.554,34.532C36.539,33.591 36.92,32.533 37.56,31.874L45.42,23.784L34.598,22.148C33.521,21.931 32.52,21.136 32.053,20.153L27.394,10.341L22.735,20.153C22.268,21.136 21.272,21.926 20.19,22.153L9.383,23.794L17.243,31.874C17.817,32.462 18.356,33.697 18.223,34.522L16.354,46L25.433,40.978C26.601,40.33 27.928,40.188 29.233,40.912L29.233,40.902Z" style="fill:white;fill-rule:nonzero;"/>
                </g>
            </g>
        </g>
    </g>
</svg>
