<?xml version="1.0" encoding="UTF-8" standalone="no"?>
<!DOCTYPE svg PUBLIC "-//W3C//DTD SVG 1.1//EN" "http://www.w3.org/Graphics/SVG/1.1/DTD/svg11.dtd">
<svg width="100%" height="100%" viewBox="0 0 1392 1426" version="1.1" xmlns="http://www.w3.org/2000/svg" xmlns:xlink="http://www.w3.org/1999/xlink" xml:space="preserve" xmlns:serif="http://www.serif.com/" style="fill-rule:evenodd;clip-rule:evenodd;stroke-linejoin:round;stroke-miterlimit:2;">
    <g transform="matrix(1,0,0,1,-6075,-9166)">
        <g transform="matrix(8.333333,0,0,8.333333,0,0)">
            <g id="ico-checklist">
                <g transform="matrix(1,0,0,1,729,1099.99524)">
                    <path d="M66.143,0.005C72.539,1.149 77.765,5.82 79.038,12.589L84.88,12.496C89.776,12.415 94.475,12.433 96.927,16.753L117.969,16.797C123.664,16.811 127.939,21.62 127.841,27.111L128.068,31.604L141.857,11.529C146.27,5.108 154.824,3.376 161.135,7.762C167.447,12.148 168.818,20.765 164.311,27.311L133.683,71.753L127.876,79.649L127.876,160.602C127.876,165.839 124.5,169.882 119.635,171.009L8.304,171.009C3.404,169.936 0,165.861 0,160.598L0,27.106C0,21.442 4.252,16.802 9.979,16.788L30.967,16.748C32.781,13.293 36.783,12.393 40.709,12.456L48.848,12.589C50.116,5.705 55.4,1.265 61.801,0L66.147,0L66.143,0.005ZM92.791,35.532L92.791,20.778C92.692,19.126 91.527,17.902 89.861,17.768L76.84,17.768C75.21,17.777 74.138,16.673 74.066,15.074C73.821,9.427 69.126,5.175 63.65,5.339C58.277,5.5 53.931,9.784 53.779,15.35C53.739,16.762 52.474,17.764 51.117,17.768L38.069,17.786C36.502,17.786 35.099,19.135 35.095,20.734L35.081,35.541L92.791,35.532ZM129.417,68.926L160.523,23.544C163.239,19.585 161.957,14.446 158.335,11.908C154.623,9.307 149.254,9.98 146.556,13.912L115.388,59.36L129.417,68.926ZM106.999,150.235L20.757,150.235C19.18,150.235 18.103,149.033 18.103,147.492L18.103,32.869C18.255,31.386 19.242,30.353 20.654,30.348L29.9,30.317L29.887,21.945L10.3,21.945C7.567,21.878 5.208,23.842 5.208,26.795L5.208,160.923C5.208,163.644 7.303,165.786 10.037,165.786L117.572,165.786C120.39,165.79 122.289,163.986 122.646,161.239L122.659,86.364L109.751,102.903L109.76,147.599C109.635,149.117 108.822,150.151 106.995,150.235L106.999,150.235ZM109.769,58.171L122.588,39.606L122.615,26.723C122.499,23.998 120.399,21.958 117.634,21.967L97.909,21.967L97.909,30.344L107.263,30.379C108.674,30.384 109.742,31.711 109.684,33.056L109.769,58.167L109.769,58.171ZM73.307,123.984C71.811,122.884 72.088,121.33 72.918,119.941L104.551,66.971L104.578,35.492L98.021,35.492L97.878,38.377C97.807,39.878 96.668,40.733 95.185,40.733L32.433,40.733C31.28,40.733 30.128,39.771 30.056,38.747L29.824,35.496L23.307,35.496L23.312,145.03L104.605,145.047L104.525,109.681L88.065,130.419C87.073,131.759 85.814,132.285 84.255,131.528L80.896,129.243L76.961,134.992C76.036,136.346 74.218,136.488 73.182,135.727C72.092,134.93 71.73,133.296 72.619,132.013L76.545,126.362L73.307,123.984ZM99.634,107.405L126.318,73.161L112.547,63.729L78.22,121.17L85.086,125.765L99.634,107.401L99.634,107.405Z" style="fill:white;fill-rule:nonzero;"/>
                </g>
                <g transform="matrix(1,0,0,1,734.204102,1121.803924)">
                    <path d="M101.795,128.427C103.618,128.342 104.435,127.309 104.56,125.79L104.551,81.094L117.46,64.555L117.447,139.43C117.089,142.178 115.191,143.986 112.373,143.986L4.828,143.986C2.099,143.981 0,141.835 0,139.114L0,4.982C0,2.029 2.358,0.065 5.092,0.132L24.678,0.132L24.692,8.508L15.446,8.54C14.039,8.544 13.052,9.577 12.895,11.06L12.895,125.683C12.895,127.224 13.972,128.422 15.548,128.422L101.791,128.422L101.795,128.427Z" style="fill:white;fill-rule:nonzero;"/>
                </g>
                <g transform="matrix(1,0,0,1,826.90918,1121.9497)">
                    <path d="M11.859,36.217L11.774,11.106C11.832,9.757 10.76,8.434 9.353,8.43L0,8.394L0,0.018L19.725,0.018C22.49,0.009 24.589,2.048 24.705,4.774L24.678,17.656L11.859,36.222L11.859,36.217Z" style="fill:white;fill-rule:nonzero;"/>
                </g>
                <g transform="matrix(1,0,0,1,783.344727,1156.568197)">
                    <path d="M36.516,5.201L2.793,5.201C1.167,5.201 0.046,4.15 0.001,2.707C-0.039,1.403 0.904,-0 2.525,-0L36.722,-0C38.321,0.004 39.312,1.416 39.245,2.685C39.169,4.106 38.138,5.197 36.512,5.197L36.516,5.201Z" style="fill:white;fill-rule:nonzero;"/>
                </g>
                <g transform="matrix(1,0,0,1,783.200195,1181.62142)">
                    <path d="M27.781,5.201L2.611,5.192C1.088,5.192 0.061,3.977 0.002,2.685C-0.06,1.309 1.066,-0 2.665,-0L27.58,-0C29.045,-0 30.103,1.167 30.179,2.418C30.255,3.669 29.411,4.93 27.781,5.201Z" style="fill:white;fill-rule:nonzero;"/>
                </g>
                <g transform="matrix(1,0,0,1,759.849609,1201.297835)">
                    <path d="M0.668,10.271C-0.404,8.97 -0.096,7.327 0.958,6.481C2.186,5.493 3.768,5.84 4.755,7.024L6.644,9.296L11.486,1.828C12.241,0.665 13.701,0.296 14.832,0.835C15.962,1.373 16.828,3.092 16.006,4.361L9.19,14.924C8.73,15.641 7.765,16.283 7.033,16.314C6.189,16.345 5.228,15.819 4.688,15.16L0.668,10.275L0.668,10.271Z" style="fill:white;fill-rule:nonzero;"/>
                </g>
                <g transform="matrix(1,0,0,1,759.835938,1150.773983)">
                    <path d="M1.168,10.879C0.038,9.539 -0.484,7.989 0.579,6.814C1.838,5.42 3.692,5.674 4.822,7.05L6.631,9.263L11.593,1.653C12.304,0.562 13.778,0.277 14.917,0.824C15.881,1.287 16.891,2.966 16.096,4.2L9.021,15.154C8.717,15.622 7.792,16.192 7.297,16.263C6.743,16.343 5.465,15.965 5.103,15.533L1.173,10.879L1.168,10.879Z" style="fill:white;fill-rule:nonzero;"/>
                </g>
                <g transform="matrix(1,0,0,1,759.84668,1175.840768)">
                    <path d="M0.729,10.287C-0.361,8.965 -0.165,7.286 0.894,6.471C2.261,5.415 3.797,5.794 4.807,7.041L6.616,9.267L11.578,1.639C12.288,0.544 13.767,0.272 14.901,0.815C15.866,1.278 16.871,2.957 16.081,4.186L9.005,15.154C8.679,15.662 7.536,16.232 6.973,16.263C6.308,16.299 5.236,15.756 4.758,15.181L0.729,10.296L0.729,10.287Z" style="fill:white;fill-rule:nonzero;"/>
                </g>
                <g transform="matrix(1,0,0,1,783.193359,1207.13319)">
                    <path d="M14.298,5.201L2.587,5.184C1.032,5.184 -0.026,3.914 0,2.614C0.027,1.251 1.019,0.027 2.587,0.022L14.303,0C15.964,0 17.09,1.082 17.094,2.587C17.099,4.093 15.964,5.206 14.303,5.201L14.298,5.201Z" style="fill:white;fill-rule:nonzero;"/>
                </g>
                <g transform="matrix(1,0,0,1,856.311523,1114.982757)">
                    <path d="M4.795,39.635C3.777,41.122 2.12,41.167 0.999,40.325C-0.123,39.483 -0.346,37.938 0.565,36.607L24.292,1.975C25.159,0.71 26.467,0.327 27.749,0.942C28.839,1.463 29.746,3.19 28.835,4.522L4.791,39.63L4.795,39.635Z" style="fill:white;fill-rule:nonzero;"/>
                </g>
            </g>
        </g>
    </g>
</svg>
