<?xml version="1.0" encoding="UTF-8" standalone="no"?>
<!DOCTYPE svg PUBLIC "-//W3C//DTD SVG 1.1//EN" "http://www.w3.org/Graphics/SVG/1.1/DTD/svg11.dtd">
<svg width="100%" height="100%" viewBox="0 0 1526 1392" version="1.1" xmlns="http://www.w3.org/2000/svg" xmlns:xlink="http://www.w3.org/1999/xlink" xml:space="preserve" xmlns:serif="http://www.serif.com/" style="fill-rule:evenodd;clip-rule:evenodd;stroke-linejoin:round;stroke-miterlimit:2;">
    <g transform="matrix(1,0,0,1,-5966,-13633)">
        <g transform="matrix(8.333333,0,0,8.333333,0,0)">
            <g transform="matrix(1,0,0,1,716,1635.99051)">
                <g id="ico-libros">
                    <path d="M183,113.734L183,117.293C181.942,121.925 177.977,125.094 173.002,125.099L168.765,125.099C165.491,132.554 165.524,140.503 168.751,147.967L173.636,148.038C178.282,148.104 181.918,151.44 183,155.702L183,159.26C181.866,163.959 178.02,167.005 172.93,167.005L16.136,167.005C7.92,167.005 1.253,161.403 0,153.568L0.019,119.497C1.153,114.162 4.194,109.624 9.56,107.382C7.334,104.042 7.301,100.269 9.288,96.972C10.98,94.164 14.192,92.477 17.871,92.463L22.084,92.449C25.315,84.97 25.339,77.06 22.084,69.581L17.142,69.501C11.528,69.41 7.377,64.502 7.897,59.181C8.416,53.86 13.158,50.059 19.22,50.486C9.336,42.813 5.357,30.641 9.384,18.853C12.953,8.414 23.199,0.1 35.08,0.09L126.127,0.009C131.927,0.005 136.202,4.542 136.025,10.016C135.849,15.489 131.336,19.551 125.77,19.323L123.639,19.494C121.428,24.868 121.171,31.453 123.925,36.622C127.79,36.356 131.693,37.183 133.99,40.309C136.159,43.255 136.702,46.966 135.105,50.558L142.602,50.567C151.494,50.581 158.405,57.604 158.4,66.45L158.386,95.58C158.386,99.485 157.204,102.821 154.587,106.085L174.069,106.18C178.577,106.204 181.928,109.829 182.995,113.734L183,113.734ZM35.528,19.38C30.576,19.39 27.15,23.813 27.25,28.141C27.355,32.712 30.924,36.408 35.785,36.603L118.002,36.603C116.143,30.897 116.076,25.21 117.983,19.337L77.013,19.337C75.378,19.223 74.334,18.154 74.277,16.791C74.22,15.427 75.168,14.002 76.874,14.002L126.346,13.988C128.963,13.988 130.778,11.697 130.65,9.455C130.521,7.212 128.705,5.345 126.098,5.345L35.418,5.407C22.808,5.416 13.048,16.216 13.201,28.194C13.353,40.171 23.475,50.572 36.138,50.567L126.108,50.558C128.863,50.558 130.731,48.529 130.65,46.077C130.569,43.626 128.753,41.939 126.098,41.939L36.142,41.939C28.217,41.944 22.017,35.81 21.889,28.165C21.769,20.839 27.612,14.073 35.38,14.054L63.626,13.992C65.299,13.992 66.452,15.228 66.404,16.795C66.371,17.912 65.303,19.318 63.836,19.318L35.532,19.38L35.528,19.38ZM74.268,97.818L74.268,106.113L142.84,106.094C148.716,106.094 153.034,101.258 153.034,95.608L153.034,66.417C153.034,60.801 148.773,55.912 142.864,55.912L17.299,55.903C14.769,55.903 13.158,58.064 13.229,60.198C13.296,62.131 14.878,64.203 17.299,64.203L138.251,64.203C141.911,64.203 144.694,66.731 144.694,70.37L144.694,91.67C144.694,95.247 141.863,97.822 138.284,97.822L74.268,97.822L74.268,97.818ZM74.229,83.678L74.272,92.487L139.29,92.487L139.337,69.553L27.955,69.553C28.703,72.318 29.385,75.064 29.776,78.324L93.101,78.338C94.798,78.338 95.756,79.929 95.67,81.165C95.575,82.547 94.455,83.659 92.944,83.659L74.225,83.678L74.229,83.678ZM46.398,92.473L46.36,83.654L29.78,83.688C29.394,86.914 28.794,89.479 27.865,92.496L46.398,92.473ZM62.487,124.325L68.854,130.297L68.882,83.659L51.736,83.669L51.764,130.268L58.155,124.325C59.489,123.085 61.019,122.956 62.487,124.325ZM46.374,106.113L46.389,97.813L17.194,97.832C14.764,97.832 13.129,100.07 13.225,102.156C13.32,104.241 14.993,106.094 17.304,106.094L46.37,106.109L46.374,106.113ZM13.687,146.997L13.701,125.855C13.701,122.61 16.308,119.754 19.649,119.749L46.393,119.73L46.393,111.458L16.108,111.42C10.041,111.411 5.366,115.811 5.361,121.94L5.347,151.074C5.347,156.937 9.736,161.655 15.789,161.655L173.597,161.655C176.128,161.655 177.705,159.346 177.61,157.322C177.515,155.298 175.904,153.355 173.493,153.355L20.097,153.355C16.403,153.355 13.687,150.76 13.687,147.002L13.687,146.997ZM46.37,125.056L19.053,125.094L19.062,148.009L163.042,148.009C160.244,140.412 160.23,132.663 163.051,125.071L125.141,125.071C123.511,124.999 122.434,123.816 122.438,122.443C122.443,121.07 123.434,119.74 125.126,119.74L173.311,119.74C175.818,119.74 177.605,117.849 177.605,115.663C177.605,113.33 175.899,111.444 173.288,111.444L74.282,111.444L74.215,119.726L112.197,119.749C113.77,119.749 114.699,121.531 114.556,122.671C114.399,123.935 113.303,125.066 111.835,125.066L74.248,125.066L74.196,134.963C74.191,136.255 73.105,137.6 72.061,137.989C71.017,138.379 69.221,138.084 68.277,137.191L60.338,129.67L52.036,137.414C51.078,138.307 49.181,138.345 48.19,137.837C47.199,137.329 46.412,135.989 46.408,134.749L46.37,125.052L46.37,125.056Z" style="fill:white;fill-rule:nonzero;"/>
                </g>
            </g>
        </g>
    </g>
</svg>
