<?xml version="1.0" encoding="UTF-8" standalone="no"?>
<!DOCTYPE svg PUBLIC "-//W3C//DTD SVG 1.1//EN" "http://www.w3.org/Graphics/SVG/1.1/DTD/svg11.dtd">
<svg width="100%" height="100%" viewBox="0 0 1159 1467" version="1.1" xmlns="http://www.w3.org/2000/svg" xmlns:xlink="http://www.w3.org/1999/xlink" xml:space="preserve" xmlns:serif="http://www.serif.com/" style="fill-rule:evenodd;clip-rule:evenodd;stroke-linejoin:round;stroke-miterlimit:2;">
    <g transform="matrix(1,0,0,1,-6133,-13575)">
        <g transform="matrix(8.333333,0,0,8.333333,0,0)">
            <g id="ico-papel">
                <g transform="matrix(-1,0,0,1,751.023203,1629)">
                    <rect x="0" y="0" width="15.023" height="176" style="fill:white;"/>
                </g>
                <g transform="matrix(1,0,0,1,766.046875,1629)">
                    <path d="M0,0L0,176L108.954,176L108.954,0L0,0ZM94.044,90.063L14.599,90.063L14.599,75.057L94.044,75.057L94.044,90.063ZM94.044,60.051L14.599,60.051L14.599,45.046L94.044,45.046L94.044,60.051ZM94.044,30.012L14.599,30.012L14.599,15.006L94.044,15.006L94.044,30.012Z" style="fill:white;fill-rule:nonzero;"/>
                </g>
            </g>
        </g>
    </g>
</svg>
