<?xml version="1.0" encoding="UTF-8" standalone="no"?>
<!DOCTYPE svg PUBLIC "-//W3C//DTD SVG 1.1//EN" "http://www.w3.org/Graphics/SVG/1.1/DTD/svg11.dtd">
<svg width="100%" height="100%" viewBox="0 0 1617 1426" version="1.1" xmlns="http://www.w3.org/2000/svg" xmlns:xlink="http://www.w3.org/1999/xlink" xml:space="preserve" xmlns:serif="http://www.serif.com/" style="fill-rule:evenodd;clip-rule:evenodd;stroke-linejoin:round;stroke-miterlimit:2;">
    <g transform="matrix(1,0,0,1,-5950,-9166)">
        <g transform="matrix(8.333333,0,0,8.333333,0,0)">
            <g id="ico-gestion">
                <g transform="matrix(1,0,0,1,714,1100)">
                    <path d="M110.064,159.816L84.057,159.816C83.166,159.816 81.991,158.682 81.991,157.79L81.991,132.383C81.991,130.965 83.004,129.952 84.422,129.952L94.671,129.952L94.671,104.748L37.188,104.748L37.188,129.425L55.012,129.425C56.187,129.547 57.037,130.438 57.24,131.532L57.24,141.014L67.691,141.014C68.907,141.014 69.879,142.108 69.919,143.364L69.919,168.609C69.919,170.109 68.664,170.959 67.286,170.959L42.292,170.959C41.077,170.959 39.983,169.946 39.983,168.69L39.983,143.324C39.983,142.108 41.077,141.014 42.251,141.055L52.662,141.055L52.662,134.004L17.257,134.004L17.257,141.055L27.871,141.055C28.883,141.055 29.977,142.27 29.977,143.324L29.977,168.771C29.977,169.825 28.924,171 27.83,171L2.106,171C1.013,171 0,169.825 0,168.771L0,143.324C0,142.27 1.053,141.095 2.066,141.095L12.679,141.095L12.679,131.978C12.598,130.56 13.692,129.506 15.11,129.466L32.732,129.466L32.732,104.707C27.263,103.816 23.617,99.561 23.577,94.091L23.577,10.86C23.496,5.106 27.83,0 33.785,0L160.62,0C166.129,0 170.14,4.863 170.504,10.049L170.504,94.415C170.342,99.723 166.656,103.775 161.349,104.626L161.349,129.385L178.971,129.385C180.227,129.466 181.199,130.357 181.402,131.573L181.402,141.014L191.975,141.014C192.987,141.014 194.041,142.189 194.041,143.243L194.041,168.69C194.041,169.744 193.028,170.919 191.934,170.919L166.251,170.919C165.157,170.919 164.104,169.744 164.104,168.69L164.104,143.243C164.104,141.906 165.319,140.974 166.575,140.974L176.824,140.974L176.824,133.923L141.378,133.923L141.378,140.974L151.83,140.974C153.004,140.974 154.058,142.027 154.058,143.283L154.058,168.65C154.058,169.906 153.004,170.919 151.789,170.919L126.43,170.919C125.215,170.919 124.162,169.906 124.162,168.65L124.162,143.283C124.162,142.311 125.093,141.055 126.066,141.014L136.882,141.014L136.882,131.897C136.801,130.357 137.894,129.304 139.434,129.385L156.893,129.385L156.893,104.667L99.41,104.667L99.41,129.83L109.659,129.83C111.037,129.83 112.09,130.884 112.09,132.302L112.09,157.709C112.09,158.398 111.118,159.735 110.226,159.735L110.064,159.816ZM158.838,100.169C162.848,100.169 165.886,98.183 165.886,93.969L165.886,10.495C165.886,7.051 163.213,4.538 159.81,4.538L34.15,4.538C30.747,4.538 28.114,7.091 28.114,10.495L28.114,94.009C28.114,98.345 31.395,100.209 35.243,100.209L158.838,100.209L158.838,100.169ZM107.431,155.359L107.431,134.49L86.609,134.49L86.609,155.359L107.431,155.359ZM25.399,166.421L25.399,145.593L4.578,145.593L4.578,166.421L25.399,166.421ZM65.423,166.421L65.423,145.593L44.601,145.593L44.601,166.421L65.423,166.421ZM149.44,166.421L149.44,145.593L128.618,145.593L128.618,166.421L149.44,166.421ZM189.463,166.421L189.463,145.593L168.601,145.593L168.601,166.421L189.463,166.421Z" style="fill:white;fill-rule:nonzero;"/>
                </g>
                <g transform="matrix(1,0,0,1,749.729492,1112.19706)">
                    <path d="M120.313,80.313L2.35,80.313C0.891,80.313 0,79.219 0,77.882L0,2.269C0,1.013 1.013,-0 2.309,-0L120.151,-0C121.569,-0 122.298,0.972 122.501,2.229L122.501,77.841C122.501,79.179 121.853,79.989 120.273,80.273L120.313,80.313ZM88.473,61.714C89.364,64.591 89.607,67.468 89.891,70.588L88.878,75.775L117.923,75.775L117.923,4.579L4.578,4.579L4.578,75.775L33.663,75.775L32.651,70.993C32.934,67.954 33.137,65.199 33.906,62.362C37.107,50.327 49.016,48.139 60.481,48.099C71.945,48.058 84.705,49.436 88.473,61.714ZM65.018,53.083L57.564,53.002L61.291,60.377L65.018,53.083ZM77.9,55.474C75.51,54.217 73.039,53.61 70.162,53.123L63.316,66.333C63.033,66.86 62.02,67.59 61.453,67.63C60.886,67.671 59.67,67.103 59.346,66.495L52.419,53.123C45.776,54.055 40.469,56.689 38.484,62.97C37.107,67.265 36.297,74.195 39.821,75.613L82.72,75.613C83.976,75.329 85.07,73.263 85.11,72.128C85.435,65.32 83.936,58.675 77.9,55.474Z" style="fill:white;fill-rule:nonzero;"/>
                </g>
                <g transform="matrix(1,0,0,1,796.016113,1124.917719)">
                    <path d="M12.614,2.556C21.121,1.178 28.534,7.094 29.75,15.077C30.965,23.06 25.375,30.84 17.232,32.136C9.09,33.433 1.595,27.882 0.218,19.939C-1.159,11.997 4.107,3.934 12.614,2.556ZM12.614,7.175C6.7,8.512 3.58,14.347 4.836,19.696C6.173,25.329 11.804,28.733 17.273,27.476C22.741,26.22 26.306,20.709 25.172,15.279C23.997,9.566 18.609,5.797 12.574,7.175L12.614,7.175Z" style="fill:white;fill-rule:nonzero;"/>
                </g>
            </g>
        </g>
    </g>
</svg>
