<?xml version="1.0" encoding="UTF-8" standalone="no"?>
<!DOCTYPE svg PUBLIC "-//W3C//DTD SVG 1.1//EN" "http://www.w3.org/Graphics/SVG/1.1/DTD/svg11.dtd">
<svg width="100%" height="100%" viewBox="0 0 1101 1367" version="1.1" xmlns="http://www.w3.org/2000/svg" xmlns:xlink="http://www.w3.org/1999/xlink" xml:space="preserve" xmlns:serif="http://www.serif.com/" style="fill-rule:evenodd;clip-rule:evenodd;stroke-linejoin:round;stroke-miterlimit:2;">
    <g transform="matrix(1,0,0,1,-1750,-9225)">
        <g transform="matrix(8.333333,0,0,8.333333,0,0)">
            <g id="ico-colores">
                <g transform="matrix(1,0,0,1,210,1106.974579)">
                    <path d="M32.511,164.025L26.387,164.008C11.991,162.492 0.056,150.392 0.052,135.56L0,13.77C0,6.833 5.63,0.158 12.687,0.137L45.993,0.025C49.416,0.013 52.328,2.065 54.694,4.104C58.16,2.875 61.673,2.682 65.109,4.053L94.026,15.587C99.544,17.789 102.551,23.286 102.551,29.014L115.56,38.046C121.602,42.24 123.097,50.303 119.476,56.589L128.053,66.015C133.301,71.781 133.503,80.719 127.551,86.079L111.535,100.5C110.496,101.434 108.933,101.224 108.091,100.222C107.412,99.412 107.361,98.131 108.091,97.124L113.116,92.604L102.598,80.997L91.041,97.681L98.372,105.783L100.661,103.803C101.739,102.788 103.444,103.045 104.178,104.078C104.999,105.226 104.827,106.528 103.693,107.544L49.278,156.395C44.472,160.709 38.769,163.267 32.511,164.017L32.511,164.025ZM53.908,26.542L53.921,14.057C53.861,8.804 49.751,4.721 44.442,4.777L14.233,4.777C9.002,4.751 4.823,8.826 4.823,14.057L4.823,26.542L53.908,26.542ZM92.376,43.521L97.139,31.418C98.986,26.726 96.31,21.623 91.711,19.815L63.241,8.492C61.441,7.776 59.453,7.832 57.584,8.234C58.25,10.235 58.748,12.018 58.748,14.061L58.748,30.154L92.376,43.521ZM53.925,80.903L53.917,58.56L26.791,58.56C25.236,58.654 24.197,57.518 24.15,56.22C24.102,54.922 24.991,53.842 26.46,53.748L53.921,53.74L53.921,31.379L4.81,31.379L4.819,53.748L16.187,53.748C17.639,53.74 18.687,54.845 18.657,56.207C18.635,57.321 17.725,58.375 16.44,58.564L4.81,58.564L4.81,80.92L53.917,80.907L53.925,80.903ZM114.95,54.712C117.849,50.385 116.788,44.862 112.669,41.885L101.357,34.078L93.441,53.864L108.374,64.168L114.95,54.716L114.95,54.712ZM72.191,94.026L80.484,73.272L73.217,70.329C71.903,69.798 71.637,67.977 72.393,66.85C72.977,65.976 74.325,65.535 75.519,66.1L82.284,68.752L90.581,47.994L58.761,35.351L58.744,59.404L65.671,62.167C67.003,62.78 67.557,64.228 66.93,65.483C66.393,66.559 65.092,67.133 63.829,66.636L58.753,64.635L58.765,88.696L72.195,94.03L72.191,94.026ZM93.48,85.68L105.634,68.127L91.603,58.461L83.486,78.799L93.48,85.676L93.48,85.68ZM123.741,83.049C127.851,79.6 128.302,73.757 124.901,69.785L116.672,60.71L105.42,76.923L116.693,89.378L123.737,83.049L123.741,83.049ZM78.569,107.184L90.731,89.639L81.648,83.392L73.522,103.726L78.573,107.184L78.569,107.184ZM53.925,108.101L53.917,85.753L4.81,85.753L4.81,108.109L53.921,108.101L53.925,108.101ZM70.396,98.499L58.757,93.881L58.8,127.419L70.391,98.503L70.396,98.499ZM80.089,122.248L94.794,109.043L88.206,101.751L76.636,118.448L80.089,122.248ZM75.803,111.13L71.667,108.306L63.958,128.045L75.803,111.13ZM53.908,134.831L53.908,112.916L4.823,112.916L4.797,134.621C4.78,148.302 15.727,159.227 29.2,159.321C42.57,159.415 53.912,148.657 53.912,134.831L53.908,134.831ZM76.503,125.44L73.784,122.552L64.619,135.98L76.503,125.444L76.503,125.44Z" style="fill:white;fill-rule:nonzero;"/>
                </g>
                <g transform="matrix(1,0,0,1,227.234863,1228.148571)">
                    <path d="M9.225,2.453C15.719,1.1 21.663,5.307 22.926,11.455C24.188,17.603 20.147,23.884 13.705,25.101C7.705,26.236 1.615,22.415 0.262,16.189C-1.048,10.174 2.65,3.82 9.225,2.449L9.225,2.453ZM9.856,7.244C5.983,8.246 4.127,12.196 5.081,15.56C6.094,19.15 9.766,21.095 13.103,20.307C16.887,19.411 19.03,15.628 18.124,12.089C17.218,8.55 13.683,6.254 9.856,7.244Z" style="fill:white;fill-rule:nonzero;"/>
                </g>
                <g transform="matrix(-0.970473,0.241209,0.241209,0.970473,243.388448,1232.258952)">
                    <path d="M6.867,1.522C2.914,1.484 0.036,4.557 0.012,8.218C-0.011,11.88 2.982,15.021 6.867,14.982C10.296,14.947 13.39,12.169 13.507,8.44C13.617,4.947 10.864,1.561 6.867,1.522Z" style="fill:white;fill-rule:nonzero;"/>
                </g>
            </g>
        </g>
    </g>
</svg>
