<?xml version="1.0" encoding="UTF-8" standalone="no"?>
<!DOCTYPE svg PUBLIC "-//W3C//DTD SVG 1.1//EN" "http://www.w3.org/Graphics/SVG/1.1/DTD/svg11.dtd">
<svg width="100%" height="100%" viewBox="0 0 1842 1484" version="1.1" xmlns="http://www.w3.org/2000/svg" xmlns:xlink="http://www.w3.org/1999/xlink" xml:space="preserve" xmlns:serif="http://www.serif.com/" style="fill-rule:evenodd;clip-rule:evenodd;stroke-linejoin:round;stroke-miterlimit:2;">
    <g transform="matrix(1,0,0,1,-5800,-9208)">
        <g transform="matrix(8.333333,0,0,8.333333,0,0)">
            <g id="ico-tecnologia">
                <g transform="matrix(1,0,0,1,770.540039,1143.028931)">
                    <path d="M2.875,38.947L71.011,38.929L95.91,14.216L124.556,14.216C125.891,19.8 130.943,23.505 136.729,22.847C142.141,22.224 146.508,17.568 146.454,11.846C146.406,6.429 142.298,1.659 136.518,1.055C131.213,0.498 125.807,3.945 124.598,9.727L94.069,9.739L69.164,34.452L1.781,34.476C0.554,34.476 -0.204,36.397 0.048,37.187C0.349,38.145 1.269,38.953 2.875,38.953L2.875,38.947ZM23.203,53.216L101.052,53.216C102.459,59.249 107.92,62.672 113.694,61.786C118.926,60.984 123.028,56.238 122.926,50.78C122.818,45.231 118.445,40.521 112.882,40.054C107.319,39.587 102.351,43.16 101.016,48.739L22.945,48.739C21.405,48.739 20.467,49.96 20.575,51.175C20.665,52.228 21.501,53.216 23.209,53.216L23.203,53.216ZM124.58,92.221C125.849,98.033 131.22,101.462 136.53,100.9C142.328,100.289 146.418,95.495 146.46,90.096C146.508,84.357 142.105,79.694 136.717,79.108C131.328,78.521 125.921,81.951 124.61,87.732L95.928,87.75L71.017,63.025L2.617,63.013C0.999,63.013 -0.084,64.103 0.036,65.479C0.139,66.646 1.167,67.502 2.617,67.502L69.164,67.502L94.075,92.221L124.586,92.221L124.58,92.221Z" style="fill:white;fill-rule:nonzero;"/>
                </g>
                <g transform="matrix(1,0,0,1,696.001953,1104.326279)">
                    <path d="M110.047,167.452C109.566,173.173 105.32,177.429 99.774,178.105C93.532,178.865 87.475,178.74 81.178,178.333C75.146,177.95 70.383,173.7 69.811,167.643L68.621,155.062C68.398,152.734 66.732,150.759 64.892,149.975C62.57,148.981 60.122,149.442 58.18,151.07L48.647,159.048C44.04,162.903 37.689,162.681 33.178,158.851C28.157,154.589 23.562,150.316 19.532,145.049C16.573,141.177 16.483,135.407 19.628,131.588L28.145,121.24C29.696,119.354 30.045,116.942 29.113,114.794C28.181,112.645 26.136,111.191 23.562,110.981L11.557,110.018C6.283,109.593 1.604,106.025 0.756,100.585C-0.273,93.983 -0.122,87.441 0.443,80.714C0.912,75.118 5.182,70.599 10.842,70.06L24.091,68.785C26.503,68.552 28.307,66.589 28.975,64.865C29.961,62.31 29.197,60.125 27.591,58.222L19.364,48.448C16.248,44.749 16.032,38.997 18.991,35.053C23.303,29.295 28.253,24.345 34.008,20.006C38.038,16.966 43.83,17.211 47.667,20.347L57.578,28.445C59.497,30.013 61.794,30.606 64.176,29.642C66.245,28.804 67.881,26.877 68.121,24.256L69.324,11.088C69.793,5.947 74.142,1.895 79.242,1.302C86.074,0.512 92.611,0.452 99.432,1.26C104.538,1.865 108.784,5.983 109.283,11.082L110.528,23.819C110.762,26.243 111.953,28.206 113.944,29.187C116.073,30.235 118.701,30.175 120.668,28.547L131.006,19.988C134.922,16.744 141.002,16.439 144.863,19.683L151.359,25.135L167.236,9.412L189.742,9.4C190.92,3.786 196.075,0.339 201.355,0.704C207.093,1.105 211.339,5.797 211.573,11.136C211.832,16.924 207.604,21.694 202.209,22.484C196.436,23.328 191.143,19.833 189.73,13.895L169.089,13.895L120.175,62.477C119.104,63.542 117.655,63.572 116.644,62.573C101.41,47.556 77.016,47.975 62.191,62.932C47.426,77.829 47.529,101.872 62.42,116.649C77.371,131.487 101.741,131.696 116.879,116.565C117.559,115.889 119.194,115.913 119.94,116.661L169.083,165.476L189.718,165.476C191.095,159.665 196.183,156.211 201.788,156.822C207.249,157.42 211.628,162.053 211.579,167.793C211.537,173.215 207.424,178.039 201.662,178.614C196.297,179.153 190.933,175.705 189.73,169.935L167.212,169.935L151.335,154.212L146.914,158.151C142.554,162.029 136.107,162.765 131.409,158.923L121.281,150.639C119.369,149.077 116.855,148.826 114.588,149.885C112.705,150.765 111.286,152.746 111.081,155.176L110.041,167.452L110.047,167.452ZM55.864,147.216C59.178,144.462 63.701,144.421 67.249,146.168C70.557,147.796 72.806,151.1 73.167,155.074L74.238,166.841C74.533,170.067 76.613,173.126 80.132,173.604C86.405,174.46 92.69,174.299 99.047,173.7C102.523,173.371 105.199,170.672 105.512,167.188L106.655,154.392C107.022,150.28 109.842,147.06 113.12,145.671C117.132,143.972 121.269,144.804 124.499,147.455L134.122,155.367C136.834,157.6 140.467,157.373 143.245,155.367L148.147,151.028L118.316,121.395C100.887,136.987 74.43,135.622 58.577,119.151C42.705,102.662 42.705,76.704 58.577,60.221C74.43,43.749 100.899,42.379 118.322,57.976L148.153,28.337L142.734,23.597C140.04,21.634 136.389,21.365 133.701,23.597L123.627,31.953C120.475,34.562 116.241,35.065 112.434,33.443C109.121,32.03 106.498,28.703 106.107,24.687L104.874,11.896C104.562,8.634 101.903,5.995 98.608,5.66C92.251,5.013 86.044,5.001 79.723,5.785C76.367,6.198 73.949,9.041 73.672,12.261L72.602,24.722C72.247,28.84 69.625,32.192 66.281,33.64C62.504,35.274 58.282,34.825 55.137,32.24L45.502,24.327C42.795,22.107 39.024,21.634 36.162,23.956C31.182,27.996 26.707,32.401 22.756,37.489C20.915,39.865 21.09,43.516 22.984,45.79L31.777,56.342C34.375,59.455 34.544,63.92 32.709,67.565C31.2,70.569 27.964,72.975 24.091,73.328L11.726,74.465C8.009,74.807 5.242,77.452 4.911,81.205C4.4,87.076 4.436,92.762 4.942,98.658C5.254,102.303 7.913,105.199 11.659,105.517L23.941,106.558C28.12,106.911 31.488,109.287 33.088,112.735C34.808,116.434 34.405,120.719 31.747,123.939L23.405,134.03C21.27,136.616 21.378,140.351 23.526,142.936C27.555,147.802 31.921,152.165 36.925,156.026C39.686,158.157 43.379,157.606 45.917,155.499L55.87,147.234L55.864,147.216ZM199.773,5.235C195.846,5.695 193.537,9.299 194.102,12.722C194.667,16.146 197.873,18.516 201.349,18.055C204.825,17.594 207.508,14.41 206.991,10.705C206.552,7.563 203.605,4.786 199.773,5.229L199.773,5.235ZM198.462,161.604C194.637,162.885 193.206,166.841 194.457,170.025C195.708,173.209 199.328,174.873 202.378,173.922C206.046,172.778 207.821,169.074 206.744,165.788C205.667,162.502 202.125,160.371 198.456,161.598L198.462,161.604Z" style="fill:white;fill-rule:nonzero;"/>
                </g>
                <g transform="matrix(1,0,0,1,770.541992,1143.022633)">
                    <path d="M2.873,38.953C1.274,38.953 0.347,38.139 0.047,37.187C-0.2,36.397 0.552,34.476 1.779,34.476L69.163,34.452L94.068,9.739L124.596,9.727C125.805,3.946 131.218,0.498 136.516,1.055C142.296,1.659 146.404,6.429 146.452,11.846C146.506,17.568 142.14,22.23 136.727,22.847C130.941,23.511 125.889,19.8 124.554,14.21L95.908,14.21L71.009,38.929L2.873,38.947L2.873,38.953ZM135.097,5.508C131.176,5.717 128.559,9.117 128.938,12.612C129.317,16.108 132.264,18.651 135.843,18.43C139.421,18.208 142.206,15.186 141.911,11.421C141.665,8.285 138.874,5.31 135.097,5.508Z" style="fill:white;fill-rule:nonzero;"/>
                </g>
                <g transform="matrix(1,0,0,1,770.561523,1206.042213)">
                    <path d="M124.558,29.208L94.048,29.208L69.137,4.489L2.589,4.489C1.146,4.489 0.117,3.633 0.009,2.466C-0.111,1.089 0.971,0 2.589,0L70.989,0.012L95.9,24.737L124.582,24.719C125.894,18.937 131.042,15.478 136.689,16.094C142.337,16.711 146.48,21.343 146.432,27.083C146.39,32.482 142.3,37.276 136.503,37.886C131.192,38.449 125.821,35.019 124.552,29.208L124.558,29.208ZM133.327,20.87C129.55,22.103 128.041,26.161 129.328,29.351C130.627,32.554 134.139,34.164 137.236,33.2C140.833,32.087 142.661,28.352 141.639,25.156C140.538,21.726 137.068,19.649 133.333,20.87L133.327,20.87Z" style="fill:white;fill-rule:nonzero;"/>
                </g>
                <g transform="matrix(1,0,0,1,791.100586,1182.179052)">
                    <path d="M2.643,14.065C0.935,14.065 0.099,13.078 0.008,12.025C-0.1,10.81 0.838,9.583 2.378,9.583L80.449,9.583C81.784,4.01 86.74,0.431 92.315,0.904C97.891,1.377 102.257,6.081 102.359,11.629C102.461,17.088 98.36,21.834 93.127,22.636C87.354,23.522 81.899,20.099 80.485,14.071L2.637,14.071L2.643,14.065ZM88.929,5.824C85.285,7.23 83.992,11.199 85.309,14.311C86.704,17.615 90.433,19.159 93.783,17.818C96.964,16.543 98.648,12.898 97.5,9.744C96.261,6.345 92.646,4.393 88.929,5.824Z" style="fill:white;fill-rule:nonzero;"/>
                </g>
                <g transform="matrix(1,0,0,1,700.541016,1109.123077)">
                    <path d="M51.325,142.419L41.372,150.684C38.84,152.785 35.147,153.342 32.38,151.211C27.377,147.35 23.01,142.987 18.981,138.121C16.834,135.53 16.725,131.801 18.86,129.215L27.202,119.124C29.86,115.904 30.263,111.619 28.543,107.92C26.944,104.472 23.576,102.096 19.396,101.743L7.115,100.702C3.368,100.385 0.703,97.488 0.397,93.843C-0.109,87.941 -0.145,82.261 0.367,76.39C0.697,72.637 3.458,69.992 7.181,69.651L19.546,68.513C23.419,68.16 26.655,65.754 28.164,62.75C29.999,59.105 29.824,54.64 27.232,51.527L18.439,40.975C16.545,38.701 16.37,35.05 18.211,32.674C22.156,27.581 26.637,23.175 31.617,19.141C34.479,16.819 38.25,17.292 40.957,19.512L50.592,27.425C53.743,30.011 57.959,30.459 61.736,28.825C65.08,27.377 67.708,24.025 68.057,19.908L69.128,7.446C69.404,4.226 71.822,1.383 75.178,0.97C81.499,0.186 87.706,0.204 94.063,0.845C97.352,1.18 100.011,3.819 100.33,7.081L101.562,19.872C101.947,23.888 104.57,27.215 107.889,28.628C111.69,30.25 115.931,29.747 119.082,27.138L129.156,18.782C131.844,16.55 135.495,16.819 138.189,18.782L143.608,23.523L113.777,53.161C96.354,37.558 69.885,38.934 54.032,55.406C38.166,71.889 38.166,97.847 54.032,114.336C69.885,130.807 96.342,132.178 113.771,116.581L143.602,146.213L138.701,150.553C135.922,152.552 132.289,152.779 129.577,150.553L119.954,142.64C116.724,139.983 112.587,139.157 108.575,140.857C105.297,142.245 102.477,145.465 102.11,149.577L100.967,162.373C100.654,165.857 97.978,168.562 94.502,168.885C88.145,169.484 81.86,169.651 75.587,168.789C72.069,168.305 69.988,165.252 69.693,162.026L68.622,150.259C68.262,146.291 66.018,142.981 62.704,141.353C59.156,139.612 54.633,139.654 51.319,142.401L51.325,142.419Z" style="fill:white;fill-rule:nonzero;"/>
                </g>
                <g transform="matrix(1,0,0,1,890.006836,1263.836228)">
                    <path d="M4.458,2.094C8.127,0.867 11.633,2.902 12.746,6.284C13.858,9.665 12.048,13.274 8.38,14.417C5.324,15.369 1.752,13.801 0.459,10.521C-0.834,7.241 0.639,3.381 4.464,2.1L4.458,2.094Z" style="fill:white;fill-rule:nonzero;"/>
                </g>
                <g transform="matrix(1,0,0,1,890.020508,1108.710787)">
                    <path d="M5.755,0.85C9.592,0.401 12.539,3.184 12.972,6.326C13.489,10.031 10.819,13.209 7.331,13.676C3.842,14.143 0.643,11.719 0.083,8.343C-0.476,4.968 1.821,1.311 5.755,0.856L5.755,0.85Z" style="fill:white;fill-rule:nonzero;"/>
                </g>
                <g transform="matrix(-0.998339,0.057616,0.057616,0.998339,912.009863,1147.782445)">
                    <path d="M6.403,0.38C2.621,0.4 0.006,3.53 -0.059,6.676C-0.136,10.451 2.944,13.307 6.403,13.323C9.862,13.339 12.792,10.556 12.961,7.117C13.13,3.678 10.33,0.357 6.403,0.38Z" style="fill:white;fill-rule:nonzero;"/>
                </g>
                <g transform="matrix(1,0,0,1,899.432617,1224.823201)">
                    <path d="M4.456,2.089C8.191,0.868 11.661,2.945 12.762,6.375C13.791,9.571 11.962,13.306 8.36,14.419C5.262,15.377 1.75,13.772 0.451,10.57C-0.836,7.386 0.673,3.322 4.45,2.089L4.456,2.089Z" style="fill:white;fill-rule:nonzero;"/>
                </g>
                <g transform="matrix(-0.926983,0.375103,0.375103,0.926983,885.328282,1183.772658)">
                    <path d="M6.498,1.934C2.513,1.997 -0.103,5.167 0.024,8.783C0.142,12.138 3.076,14.883 6.498,14.873C10.106,14.859 12.983,12.029 13.037,8.443C13.091,5.064 10.398,1.873 6.498,1.934Z" style="fill:white;fill-rule:nonzero;"/>
                </g>
            </g>
        </g>
    </g>
</svg>
