<?xml version="1.0" encoding="UTF-8" standalone="no"?>
<!DOCTYPE svg PUBLIC "-//W3C//DTD SVG 1.1//EN" "http://www.w3.org/Graphics/SVG/1.1/DTD/svg11.dtd">
<svg width="100%" height="100%" viewBox="0 0 1476 1510" version="1.1" xmlns="http://www.w3.org/2000/svg" xmlns:xlink="http://www.w3.org/1999/xlink" xml:space="preserve" xmlns:serif="http://www.serif.com/" style="fill-rule:evenodd;clip-rule:evenodd;stroke-linejoin:round;stroke-miterlimit:2;">
    <g transform="matrix(1,0,0,1,-6041,-13541)">
        <g transform="matrix(8.333333,0,0,8.333333,0,0)">
            <g id="ico-examen">
                <g transform="matrix(1,0,0,1,725,1625.034301)">
                    <path d="M161.66,158.707L161.574,165.175C161.454,174.102 154.308,180.971 145.371,180.971L15.803,180.943C6.827,180.937 0,173.523 0,164.682L0,3.045C0,1.267 1.246,0 3.019,0L132.467,0C134.582,0 135.634,1.405 135.634,3.446L135.634,155.754L158.659,155.783C160.322,155.783 161.489,157.188 161.654,158.707L161.66,158.707ZM29.342,155.777L129.643,155.766L129.631,6.021L6.003,6.021L5.998,165.089C6.198,170.932 10.909,175.123 16.358,174.939C21.806,174.756 25.997,170.347 25.986,164.762L25.974,159.126C25.94,157.291 27.015,155.777 29.336,155.777L29.342,155.777ZM155.617,164.682L155.548,161.786L31.863,161.786C32.383,166.803 31.457,171.012 28.53,174.945L144.931,174.968C150.957,174.968 155.765,170.886 155.617,164.682Z" style="fill:white;fill-rule:nonzero;"/>
                </g>
                <g transform="matrix(1,0,0,1,872.086426,1624.942673)">
                    <path d="M17.878,144.234C17.295,145.496 16.192,146.362 15.226,146.419C14.196,146.482 12.784,145.834 12.304,144.802L0.011,118.312L0,11.657C0,5.011 5.129,0.109 11.583,0.08L18.05,0.057C24.579,0.029 29.914,4.874 29.914,11.662L29.914,118.254L17.878,144.234ZM23.933,19.85L23.922,11.588C23.899,8.526 21.543,6.106 18.462,6.101L11.595,6.101C8.479,6.043 6.009,8.417 6.003,11.582L6.003,19.873L23.933,19.85ZM11.961,114.464L11.961,25.882L5.992,25.963L5.992,114.545L11.961,114.459L11.961,114.464ZM23.922,114.47L23.922,25.888L17.953,25.974L17.953,114.55L23.922,114.47ZM22.172,120.634L7.701,120.582L14.957,136.264L22.172,120.628L22.172,120.634Z" style="fill:white;fill-rule:nonzero;"/>
                </g>
                <g transform="matrix(1,0,0,1,818.279785,1637.845636)">
                    <path d="M21.143,12.165L16.209,18.117C15.671,18.765 14.597,19.499 13.768,19.579C13.059,19.648 11.692,18.948 11.223,18.392L6.049,12.211L5.969,28.34C5.958,30.106 4.728,31.339 3.145,31.425C1.458,31.517 0,30.215 0,28.277L0,3.415C0,2.326 0.961,1.053 1.761,0.703C2.807,0.25 4.477,0.549 5.237,1.489L13.602,11.821L21.772,1.678C22.578,0.68 23.973,0.239 25.191,0.606C26.174,0.904 27.198,2.206 27.198,3.484L27.175,28.662C27.175,30.387 25.38,31.5 24.122,31.448C22.384,31.374 21.223,30.152 21.217,28.346L21.143,12.165Z" style="fill:white;fill-rule:nonzero;"/>
                </g>
                <g transform="matrix(1,0,0,1,793.329102,1638.313849)">
                    <path d="M14.94,18.486L6.009,18.475L5.998,27.844C5.998,29.564 4.683,30.877 3.265,30.957C1.441,31.055 0.011,29.822 0.011,27.844L0,3.366C0,1.525 1.109,0 3.087,0L18.027,0C19.594,0 20.931,1.411 20.931,2.976L20.909,28.193C20.909,29.902 19.096,31.06 17.844,30.974C16.169,30.86 14.997,29.644 14.928,27.878L14.945,18.492L14.94,18.486ZM14.945,12.454L14.934,6.003L6.015,6.003L6.009,12.477L14.945,12.454Z" style="fill:white;fill-rule:nonzero;"/>
                </g>
                <g transform="matrix(1,0,0,1,740.179688,1638.296839)">
                    <path d="M6.003,18.491L6.015,24.982L18.067,25.005C19.714,25.005 20.989,26.714 20.914,28.073C20.829,29.758 19.479,31.008 17.713,31.008L3.122,31.008C1.269,31.003 0,29.735 0,27.861L0.011,2.97C0.011,1.204 1.481,0.017 3.11,0.011L17.701,0.011C19.502,0.006 20.72,1.227 20.863,2.769C21.034,4.604 19.657,6.026 17.701,6.026L6.026,6.026L5.998,12.494L17.684,12.482C19.439,12.482 20.777,13.704 20.897,15.338C21.023,17.075 19.616,18.514 17.724,18.509L6.003,18.486L6.003,18.491Z" style="fill:white;fill-rule:nonzero;"/>
                </g>
                <g transform="matrix(1,0,0,1,771.516602,1751.992823)">
                    <path d="M67.186,6.015L3.082,6.015C1.281,6.015 0.092,4.622 0.006,3.217C-0.097,1.525 1.11,0 3.082,0L67.597,0.012C69.433,0.012 70.41,1.818 70.308,3.2C70.199,4.696 69.033,6.009 67.186,6.009L67.186,6.015Z" style="fill:white;fill-rule:nonzero;"/>
                </g>
                <g transform="matrix(1,0,0,1,771.512207,1692.384057)">
                    <path d="M67.19,6.021L3.086,6.021C1.217,6.021 0.091,4.685 0.005,3.165C-0.087,1.565 1.137,-0 3.121,-0L67.545,0.011C69.346,0.011 70.426,1.898 70.323,3.142C70.198,4.742 69.083,6.021 67.19,6.021Z" style="fill:white;fill-rule:nonzero;"/>
                </g>
                <g transform="matrix(1,0,0,1,771.540039,1722.19424)">
                    <path d="M67.58,5.998L3.156,6.015C1.337,6.015 0.154,4.753 0.017,3.354C-0.155,1.543 1,0 3.053,0L67.174,0C68.946,0 70.061,1.13 70.278,2.569C70.461,3.807 69.672,5.998 67.58,5.998Z" style="fill:white;fill-rule:nonzero;"/>
                </g>
                <g transform="matrix(1,0,0,1,765.134766,1637.587015)">
                    <path d="M23.62,26.982C24.661,28.416 24.072,30.342 22.945,31.145C21.653,32.068 19.749,31.844 18.715,30.428L12.071,21.34L5.353,30.537C4.375,31.873 2.431,32.028 1.151,31.093C0.007,30.262 -0.445,28.347 0.545,26.988L8.377,16.226L0.647,5.612C-0.319,4.282 -0.17,2.539 1.013,1.501C2.134,0.515 4.192,0.371 5.279,1.845L12.122,11.099L18.617,2.149C19.584,0.819 21.305,0.371 22.585,1.071C24.117,1.902 24.689,4.03 23.626,5.486L15.804,16.214L23.626,26.994L23.62,26.982Z" style="fill:white;fill-rule:nonzero;"/>
                </g>
                <g transform="matrix(1,0,0,1,743.781738,1744.854437)">
                    <path d="M17.535,20.263L3.122,20.252C1.229,20.252 0,18.882 0,17.018L0,3.268C0,1.456 1.155,0.012 3.053,0.012L17.352,0C19.096,0.212 20.188,1.502 20.188,3.251L20.188,17.041C20.188,18.624 19.239,19.896 17.535,20.263ZM14.208,14.214L14.162,6.009L5.98,6.021L6.026,14.26L14.208,14.214Z" style="fill:white;fill-rule:nonzero;"/>
                </g>
                <g transform="matrix(1,0,0,1,743.792969,1715.0672)">
                    <path d="M17.312,20.229L3.345,20.269C1.549,20.269 0,19.117 0,17.156L0,3.062C0,1.084 1.578,-0 3.345,-0L17.095,0.017C18.782,0.017 20.171,1.238 20.171,3.01L20.171,17.219C20.177,18.664 19.022,20.229 17.318,20.229L17.312,20.229ZM14.185,14.22L14.168,6.02L5.98,6.02L5.98,14.231L14.185,14.22Z" style="fill:white;fill-rule:nonzero;"/>
                </g>
                <g transform="matrix(1,0,0,1,744.683594,1685.871647)">
                    <path d="M7.823,17.676L0.802,10.709C-0.427,9.488 -0.141,7.447 0.968,6.461C2.203,5.354 3.992,5.469 5.227,6.707L9.39,10.87L18.652,1.621C19.807,0.469 21.774,0.922 22.694,1.885C23.758,3.009 23.792,4.907 22.643,6.065L11.717,17.057C10.962,17.814 8.852,18.691 7.829,17.676L7.823,17.676Z" style="fill:white;fill-rule:nonzero;"/>
                </g>
            </g>
        </g>
    </g>
</svg>
