<?xml version="1.0" encoding="UTF-8" standalone="no"?>
<!DOCTYPE svg PUBLIC "-//W3C//DTD SVG 1.1//EN" "http://www.w3.org/Graphics/SVG/1.1/DTD/svg11.dtd">
<svg width="100%" height="100%" viewBox="0 0 1024 1024" version="1.1" xmlns="http://www.w3.org/2000/svg" xmlns:xlink="http://www.w3.org/1999/xlink" xml:space="preserve" xmlns:serif="http://www.serif.com/" style="fill-rule:evenodd;clip-rule:evenodd;stroke-linejoin:round;stroke-miterlimit:2;">

	<path id="cuerpo" d="M247.554,322.632c20.725,2.411 39.768,29.855 40.3,43.423c1.022,26.045 -1.687,142.433 1.587,147.06c1.876,2.652 -5.869,11.544 25.951,37.106c38.048,30.565 102.25,90.518 117.907,97.372c9.984,4.371 10.567,4.626 136.18,3.882c26.283,-0.156 25.187,-5.669 79.793,-50.59c6.437,-5.296 71.972,-59.208 78.355,-68.679c12.59,-18.679 7.33,-45.866 8.246,-156.096c0.508,-61.223 76.854,-74.668 101.547,-24.972c6.361,12.801 5.506,13.375 5.506,153.969c0,61.729 4.066,68.767 -21.472,89.973c-12.404,10.3 -131.096,108.86 -153.961,130.043c-7.438,6.891 -9.319,19.084 -9.353,21.979c-0.46,38.494 1.033,269.478 -0.885,271.859c-4.86,6.034 -6.259,4.965 -75.775,4.965c-209.538,-0 -210.193,0.331 -213.293,-2.501c-4.698,-4.293 -4.054,-5.458 -4.054,-138.317c0,-143.892 0.717,-144.64 -4.652,-153.001c-6.802,-10.595 -163.08,-134.965 -172.813,-152.105c-6.585,-11.595 -5.669,-12.306 -5.669,-138.894c-0,-72.071 -3.565,-85.677 18.862,-105.604c20.268,-18.008 43.907,-11.857 47.694,-10.872Z" style="fill-opacity:1;"/>
	<path id="cabeza" d="M519.502,578.522c-7.621,3.196 -12.922,-0.066 -19.049,-0.523c-10.274,-0.766 -9.95,-1.86 -20.072,-4.005c-34.993,-7.412 -69.139,-56.206 -70.943,-83.485c-1.885,-28.495 0.338,-46.022 7.662,-61.159c43.245,-89.38 144.15,-78.817 183.631,-11.981c15.62,26.443 14.224,46.252 14.402,55.124c1.004,49.959 -35.451,101.581 -95.631,106.029Z" style="fill-opacity:1;"/>
	<path id="estrella" d="M547.504,138.483c10.289,3.462 60.334,-4.245 68.8,5.203c15.415,17.202 -5.067,26.426 -26.717,42.929c-16.385,12.489 -25.486,13.756 -20.508,23.017c4.531,8.429 12.833,41.826 14.302,43.915c1.767,2.513 8.221,29.384 -17.765,26.503c-7.21,-0.799 -51.504,-37.903 -54.145,-36.759c-0.809,0.35 -40.643,29.537 -48.226,34.819c-6.001,4.18 -20.195,3.523 -23.558,-7.682c-2.686,-8.95 17.233,-67.206 16.117,-68.219c-21.886,-19.853 -67.701,-36.729 -48.645,-58.015c5.744,-6.416 9.88,-4.967 65.341,-5.024c10.966,-0.011 21.758,-67.098 36.069,-67.299c8.762,-0.123 9.787,-1.595 15.514,4.966c6.84,7.837 17.739,59.335 23.421,61.646Z" style="fill-opacity:0.99;transform-box: fill-box; transform-origin: center;">
	
		<animateTransform 
		attributeName="transform" 
		type="scale" 
		values="1; 1.2; 1"
		dur="750ms" 
		repeatCount="indefinite" />
	</path>
	<path id="linea4" d="M956.496,402.967c-5.876,-0.679 -8.262,-0.387 -13.233,-7.313c-14.063,-19.591 16.074,-28.291 50.48,-49.686c27.169,-16.894 39.804,14.99 19.836,26.677c-52.137,30.514 -52.534,30.121 -57.083,30.321Z" style="fill-opacity:0.99;">
		<animate 
		attributeName="opacity" 
		from="0"
		to="1"
		dur="500ms" 
		repeatCount="indefinite" />
	
		<animateTransform 
		attributeName="transform" 
		type="translate" 
		from="-79,44"
		to="0,0"
		dur="500ms" 
		repeatCount="indefinite" />
	</path>
	<path id="linea3" d="M814.101,146.528c-0.242,5.31 -0.402,8.832 -30.494,59.03c-12.391,20.67 -46.363,6.525 -22.027,-27.999c16.234,-23.031 22.383,-56.037 45.975,-43.134c5.56,3.041 6.427,11.009 6.546,12.103Z" style="fill-opacity:0.99;">
		<animate 
		attributeName="opacity" 
		from="0"
		to="1"
		dur="500ms" 
		repeatCount="indefinite" />
	
		<animateTransform 
		attributeName="transform" 
		type="translate"
		from="-57,97"
		to="0,0"
		dur="500ms" 
		repeatCount="indefinite" />
	</path>
	<path id="linea2" d="M209.88,145.538c0.241,-1.039 1.948,-15.433 19.57,-13.711c5.194,0.508 8.03,0.785 37.252,53.553c15.724,28.393 -14.778,40.838 -27.862,17.949c-27.347,-47.84 -28.606,-47.716 -28.961,-57.791Z" style="fill-opacity:0.99;">
		<animate 
		attributeName="opacity" 
		from="0"
		to="1"
		dur="500ms" 
		repeatCount="indefinite" />
	
		<animateTransform 
		attributeName="transform" 
		type="translate"
		from="57,97"
		to="0,0"
		dur="500ms" 
		repeatCount="indefinite" />
	</path>
	<path id="linea1" d="M67.505,402.966c-10.073,-0.419 -64.103,-33.792 -65.216,-37.344c-4.804,-15.333 4.975,-33.876 27.957,-19.635c34.297,21.254 64.513,30.252 50.426,49.626c-5.027,6.914 -6.968,6.587 -13.167,7.352Z" style="fill-opacity:0.99;">
		<animate 
		attributeName="opacity" 
		from="0"
		to="1"
		dur="500ms" 
		repeatCount="indefinite" />
	
		<animateTransform 
		attributeName="transform" 
		type="translate"
		from="79,44"
		to="0,0"
		dur="500ms" 
		repeatCount="indefinite" />
	</path>
</svg>
