<?xml version="1.0" encoding="UTF-8" standalone="no"?>
<!DOCTYPE svg PUBLIC "-//W3C//DTD SVG 1.1//EN" "http://www.w3.org/Graphics/SVG/1.1/DTD/svg11.dtd">
<svg width="100%" height="100%" viewBox="0 0 1434 1434" version="1.1" xmlns="http://www.w3.org/2000/svg" xmlns:xlink="http://www.w3.org/1999/xlink" xml:space="preserve" xmlns:serif="http://www.serif.com/" style="fill-rule:evenodd;clip-rule:evenodd;stroke-linejoin:round;stroke-miterlimit:2;">
    <g transform="matrix(1,0,0,1,-1566,-9166)">
        <g transform="matrix(8.333333,0,0,8.333333,0,0)">
            <g id="ico-liderazgo">
                <g transform="matrix(1,0,0,1,188,1197.436645)">
                    <path d="M170.798,5.428C173.036,8.93 172.02,13.15 168.811,16.26L129.025,54.841C126.161,57.621 122.497,59.221 119.022,61.032C110.256,65.603 92.914,72.496 84.283,70.219C79.261,68.894 74.61,67.54 69.479,66.621C59.246,64.79 49.228,63.456 38.84,62.257L38.83,72.747C38.83,73.525 38.029,74.563 37.158,74.563L1.897,74.563C0.856,74.563 0,73.736 0,72.627L0,2.132C0,1.089 0.656,0.01 1.727,0.01L37.032,-0C38.044,-0 38.83,1.134 38.83,2.007L38.85,10.686C42.584,9.954 45.658,9.091 48.973,7.897C57.794,4.706 67.061,6.597 73.859,13.145C76.908,16.085 80.298,18.533 84.638,19.185C92.929,20.424 98.486,18.031 107.497,23.776C111.012,26.018 114.191,28.522 116.469,32.209L154.543,5.002C159.709,1.309 167.725,0.622 170.798,5.433L170.798,5.428ZM35.08,70.796L35.07,3.753L3.76,3.753L3.76,70.816L35.085,70.796L35.08,70.796ZM71.166,15.814C65.434,10.149 57.428,8.78 49.999,11.524C46.269,12.899 42.675,13.852 38.83,14.459L38.83,58.474C49.593,59.663 59.791,61.037 70.165,62.924C75.406,63.877 80.208,65.071 85.264,66.697C94.997,67.615 108.659,62.242 117.52,57.651C120.759,55.97 124.129,54.455 126.797,51.861L165.432,14.384C166.598,13.25 167.554,12.056 168.065,10.601C168.831,8.424 167.434,6.281 165.071,5.925C162.448,5.534 159.414,6.151 157.011,7.862L117.645,35.972C117.896,40.086 115.528,43.468 111.548,44.592C105.094,46.413 98.571,44.095 92.053,42.58C85.534,41.065 79.587,41.065 73.219,41.165C71.737,41.19 70.735,40.558 70.846,39.038C70.916,38.044 71.962,37.387 73.219,37.387C79.842,37.387 86.295,37.427 92.734,38.897L102.521,41.135C106.436,42.028 112.544,41.657 113.655,38.431C115.603,32.771 105.335,25.727 98.671,24.012C91.327,22.12 81.98,26.49 71.171,15.809L71.166,15.814Z" style="fill:white;fill-rule:nonzero;"/>
                </g>
                <g transform="matrix(1,0,0,1,226.939819,1137.045998)">
                    <path d="M83.101,51.776L83.086,33.91L46.134,33.91L46.134,51.144C46.134,52.333 45.298,53.201 44.016,53.236L1.998,53.236C0.801,53.236 0,52.328 0,51.239L0,34.277C0,28.417 4.586,23.43 10.614,23.42L34.639,23.38L38.229,23.706L38.194,12.488C38.174,5.89 43.18,0.005 50.054,0.01L79.341,0.035C85.855,0.04 90.896,5.765 90.921,12.101L90.966,23.711L94.351,23.35L118.381,23.36C124.484,23.36 129.205,28.271 129.2,34.287L129.2,51.555C129.195,52.288 128.194,53.236 127.383,53.236L84.974,53.236C84.303,53.246 83.096,52.519 83.091,51.776L83.101,51.776ZM74.265,20.184C74.265,19.21 75.697,18.438 76.458,18.613C77.414,18.834 78.02,19.712 78.02,20.726L77.995,30.143L87.242,30.143L87.182,11.72C87.166,7.621 83.547,3.773 79.362,3.768L50.44,3.723C45.488,3.713 41.994,7.731 41.999,12.508L42.019,30.138L51.17,30.148L51.17,20.359C51.175,19.361 52.302,18.508 53.218,18.573C53.914,18.623 54.925,19.547 54.925,20.344L54.925,30.153L74.23,30.123L74.26,20.174L74.265,20.184ZM31.676,41.02C31.676,39.836 32.582,38.882 33.683,38.953C34.639,39.013 35.455,39.991 35.455,41L35.465,49.539L42.389,49.524L42.379,33.88C40.967,33.951 39.586,33.88 38.539,33.419C38.229,31.583 38.229,29.902 38.219,27.915C37.853,27.654 36.477,27.178 35.791,27.178L10.999,27.163C6.969,27.163 3.78,30.238 3.78,34.297L3.78,49.539L10.659,49.539L10.639,41.015C10.639,39.836 11.555,38.877 12.656,38.953C13.627,39.018 14.413,39.981 14.418,41.005L14.438,49.534L31.696,49.534L31.681,41.015L31.676,41.02ZM97.55,49.478L114.762,49.463L114.772,40.699C114.772,39.755 115.898,38.867 116.669,38.938C117.711,39.033 118.532,39.966 118.532,41.01L118.532,49.488L125.45,49.448L125.485,34.618C125.496,31.141 123.047,27.253 119.127,27.243L93.605,27.163C92.839,27.163 91.542,27.569 90.986,27.835C90.946,29.651 91.107,31.382 90.676,32.942C90.341,34.161 88.023,34.041 86.866,33.85L86.846,49.473L93.71,49.473L93.765,40.377C93.765,39.72 95.047,38.882 95.662,38.933C96.343,38.988 97.445,39.881 97.45,40.628L97.55,49.493L97.55,49.478Z" style="fill:white;fill-rule:nonzero;"/>
                </g>
                <g transform="matrix(1,0,0,1,277.476685,1099.939759)">
                    <path d="M21.781,29.952C17.4,34.001 11.412,34.176 6.952,30.479C1.269,25.768 -1.164,18.091 0.528,10.882C2.045,4.405 7.592,0.09 13.971,0.06C20.349,0.03 26.131,4.43 27.618,11.048C29.105,17.665 27.027,25.105 21.781,29.952ZM18.902,27.458C23.383,23.51 25.275,17.404 23.918,11.73C22.737,6.778 18.461,3.622 13.61,3.818C8.759,4.014 5.044,7.305 4.063,12.196C2.936,17.8 4.904,23.731 9.21,27.473C12.058,29.947 15.933,30.067 18.902,27.458Z" style="fill:white;fill-rule:nonzero;"/>
                </g>
                <g transform="matrix(1,0,0,1,237.566528,1128.038473)">
                    <path d="M19.081,26.838C14.986,30.476 9.514,30.28 5.644,26.723C0.743,22.228 -1.255,15.219 0.803,8.822C2.54,3.434 7.507,0.183 12.943,0.373C18.38,0.564 23.086,4.387 24.358,9.976C25.75,16.097 23.877,22.584 19.086,26.838L19.081,26.838ZM16.813,23.833C20.273,20.442 21.695,15.585 20.713,10.954C19.822,6.765 16.268,4.056 12.213,4.156C8.298,4.251 4.968,6.951 4.077,11.025C3.031,15.816 4.663,20.823 8.283,24.104C10.791,26.377 14.28,26.322 16.818,23.833L16.813,23.833Z" style="fill:white;fill-rule:nonzero;"/>
                </g>
                <g transform="matrix(1,0,0,1,320.650879,1128.076166)">
                    <path d="M19.018,26.851C15.183,30.232 10.002,30.287 6.192,27.162C1.025,22.917 -1.143,15.923 0.585,9.436C2.102,3.747 7.178,0.165 12.83,0.335C18.482,0.506 23.173,4.404 24.395,10.169C25.677,16.229 23.789,22.641 19.013,26.851L19.018,26.851ZM16.59,24.036C20.24,20.775 21.717,15.798 20.8,11.127C20.004,7.068 16.69,4.319 12.84,4.128C8.99,3.938 5.511,6.241 4.314,10.139C2.792,15.101 4.415,20.534 8.219,24.016C10.617,26.208 14.002,26.349 16.59,24.036Z" style="fill:white;fill-rule:nonzero;"/>
                </g>
            </g>
        </g>
    </g>
</svg>
