<?xml version="1.0" encoding="UTF-8" standalone="no"?>
<!DOCTYPE svg PUBLIC "-//W3C//DTD SVG 1.1//EN" "http://www.w3.org/Graphics/SVG/1.1/DTD/svg11.dtd">
<svg width="100%" height="100%" viewBox="0 0 2293 1076" version="1.1" xmlns="http://www.w3.org/2000/svg" xmlns:xlink="http://www.w3.org/1999/xlink" xml:space="preserve" xmlns:serif="http://www.serif.com/" style="fill-rule:evenodd;clip-rule:evenodd;stroke-linejoin:round;stroke-miterlimit:2;">
    <g transform="matrix(1,0,0,1,-5733,-9266)">
        <g transform="matrix(8.333333,0,0,8.333333,0,0)">
            <g id="ico-flechas">
                <g transform="matrix(1,0,0,1,803.48291,1207.344721)">
                    <path d="M3.756,1.703C0.491,2.745 -0.693,6.135 0.391,8.806C1.474,11.478 4.294,12.763 6.971,11.902C9.647,11.04 11.34,8.023 10.443,5.172C9.64,2.616 6.834,0.719 3.749,1.703L3.756,1.703Z" style="fill:white;fill-rule:nonzero;"/>
                </g>
                <g transform="matrix(1,0,0,1,688,1111.254623)">
                    <path d="M0,109.715L0,79.767C1.248,77.081 3.365,75.982 6.458,75.975L39.191,75.881C46.223,75.86 52.093,71.228 55.379,65.245C52.093,59.306 46.223,54.645 39.227,54.609L4.37,54.422C2.504,54.415 0.89,51.887 0.007,50.53L0.007,20.639C1.141,18.879 2.583,17.321 4.829,16.818L36.544,16.861C52.308,16.883 66.96,22.858 78.297,33.724C87.811,26.075 99.17,22.176 111.167,22.212L130.547,22.212C142.551,22.14 153.817,26.162 163.101,33.559C173.807,23.145 187.598,16.969 202.465,16.911L224.012,16.825L224.012,6.031C224.012,4.192 225.354,2.268 226.703,1.506C228.332,0.587 230.678,0.372 232.307,1.571L272.553,31.103C274.139,32.266 275.065,34.148 275.007,35.929C274.95,37.71 273.816,39.312 272.23,40.475L238.499,65.245L272.553,90.259C274.117,91.408 275.072,93.283 275,95.078C274.943,96.594 273.981,98.353 272.546,99.409L232.946,128.481C230.965,129.932 228.676,130.176 226.674,128.991C225.067,128.036 223.977,126.054 223.984,123.928L224.027,113.651L203.534,113.636C188.172,113.622 173.857,107.539 163.03,96.938C157.878,100.996 152.46,103.948 146.44,105.858C143.319,106.849 140.241,104.788 139.638,102.059C138.971,99.021 140.571,96.464 143.556,95.481C148.162,93.958 152.417,91.674 156.127,88.622L147.459,74.783C142.838,79.128 136.998,81.404 130.533,81.404L111.131,81.39C103.439,81.39 95.847,78 91.614,71.407L77.723,49.819C68.782,35.922 53.635,27.842 37.075,27.605L10.741,27.605L10.741,43.757L39.249,43.865C49.258,43.901 58.364,49.689 63.559,58.035L75.95,77.957C81.21,86.41 88.966,92.615 98.481,95.696C101.437,96.651 102.836,99.646 101.961,102.504C101.243,104.824 98.531,106.799 95.69,106.002C89.318,104.206 83.642,101.003 78.318,96.845C67.455,106.986 53.729,113.471 38.689,113.536L6.996,113.687C3.738,113.701 1.299,112.846 0.007,109.722L0,109.715ZM204.302,43.793L229.351,43.743C232.372,43.743 234.682,46.163 234.725,49.093L234.84,54.573L260.599,35.663L234.833,16.789L234.725,22.283C234.668,25.235 232.357,27.598 229.344,27.605L202.458,27.691C190.511,27.727 179.26,32.912 170.772,41.114L180.121,55.334C186.177,48.454 194.558,43.807 204.295,43.793L204.302,43.793ZM234.89,113.679L260.628,94.834L234.89,75.996L234.725,81.476C234.646,83.968 232.687,86.733 229.839,86.733L204.639,86.733C193.202,86.747 183.329,80.571 177.308,71.12L164.536,51.09C157.246,39.656 144.654,33.035 131.085,33.02L111.167,32.999C101.652,32.934 92.64,36.029 85.343,41.89L94.326,55.808C98.969,51.363 104.522,49.237 110.636,49.136L131.078,49.136C139.186,49.136 146.57,53.129 150.853,59.959L164.113,81.131C172.623,94.712 187.462,102.828 203.541,102.863L229.358,102.914C232.4,102.914 234.646,105.269 234.739,108.243L234.904,113.687L234.89,113.679ZM224.02,76.018L224.02,54.501L203.541,54.523C196.28,55.133 190.08,58.99 186.349,65.281C190.274,71.687 196.962,75.96 204.603,75.975L224.012,76.018L224.02,76.018ZM131.903,70.581C135.943,70.574 139.222,68.147 141.418,65.303C138.892,61.539 134.924,59.844 130.526,59.859L110.098,59.923C106.158,59.938 102.65,62.164 100.397,65.245C102.779,68.577 106.496,70.639 110.636,70.624L131.903,70.574L131.903,70.581ZM10.77,102.892L37.096,102.892C49.703,102.741 61.765,97.836 70.619,89.189L61.585,75.285C55.817,82.489 47.472,86.661 38.144,86.755L10.734,86.755L10.77,102.885L10.77,102.892Z" style="fill:white;fill-rule:nonzero;"/>
                </g>
                <g transform="matrix(1,0,0,1,803.500977,1207.3452)">
                    <path d="M3.738,1.703C6.823,0.719 9.629,2.608 10.432,5.172C11.329,8.03 9.751,11.003 6.96,11.901C4.168,12.799 1.435,11.391 0.38,8.806C-0.675,6.22 0.473,2.751 3.745,1.703L3.738,1.703Z" style="fill:white;fill-rule:nonzero;"/>
                </g>
            </g>
        </g>
    </g>
</svg>
