<?xml version="1.0" encoding="UTF-8" standalone="no"?>
<!DOCTYPE svg PUBLIC "-//W3C//DTD SVG 1.1//EN" "http://www.w3.org/Graphics/SVG/1.1/DTD/svg11.dtd">
<svg width="100%" height="100%" viewBox="0 0 1243 1434" version="1.1" xmlns="http://www.w3.org/2000/svg" xmlns:xlink="http://www.w3.org/1999/xlink" xml:space="preserve" xmlns:serif="http://www.serif.com/" style="fill-rule:evenodd;clip-rule:evenodd;stroke-linejoin:round;stroke-miterlimit:2;">
    <g transform="matrix(1,0,0,1,-6141,-9208)">
        <g transform="matrix(8.333333,0,0,8.333333,0,0)">
            <g id="ico-repeticion">
                <g transform="matrix(1,0,0,1,737,1105.000046)">
                    <path d="M17.529,88.808L0,88.808L0,98.578C0.584,139.882 34.475,172.292 75.084,172C115.694,171.707 148.825,138.536 149,97.759C149.117,57.216 116.454,23.46 75.143,23.167L60.71,23.05L71.286,12.344L58.899,-0L26.995,31.884L58.899,63.769L71.286,51.424L60.71,40.777L74.383,40.777C106.404,40.543 131.821,66.752 131.471,98.227C131.12,129.702 105.118,155.092 73.448,154.507C41.778,153.922 16.887,128.064 17.529,96.18L17.529,88.808ZM111.487,97.525L58.899,66.869L58.899,128.239L111.487,97.584L111.487,97.525Z" style="fill:white;fill-rule:nonzero;"/>
                </g>
                <g transform="matrix(1,0,0,1,737,1104.999954)">
                    <path d="M17.471,88.808L17.471,96.18C16.887,128.064 42.129,153.923 73.448,154.449C104.767,154.976 131.12,129.761 131.471,98.169C131.821,66.577 106.404,40.484 74.383,40.601L60.71,40.601L71.286,51.366L58.899,63.71L26.995,31.826L58.899,0L71.286,12.344L60.71,23.05L75.143,23.167C116.454,23.46 149.117,57.216 149,97.759C148.883,138.536 115.928,171.649 75.084,172C34.241,172.351 0.584,139.882 0,98.578L0,88.808L17.471,88.808Z" style="fill:white;fill-rule:nonzero;"/>
                </g>
                <g transform="matrix(1,0,0,1,795.898438,1171.869335)">
                    <path d="M52.588,30.656L0,61.37L0,0L52.588,30.656Z" style="fill:white;fill-rule:nonzero;"/>
                </g>
            </g>
        </g>
    </g>
</svg>
