<?xml version="1.0" encoding="UTF-8" standalone="no"?>
<!DOCTYPE svg PUBLIC "-//W3C//DTD SVG 1.1//EN" "http://www.w3.org/Graphics/SVG/1.1/DTD/svg11.dtd">
<svg width="100%" height="100%" viewBox="0 0 1217 1451" version="1.1" xmlns="http://www.w3.org/2000/svg" xmlns:xlink="http://www.w3.org/1999/xlink" xml:space="preserve" xmlns:serif="http://www.serif.com/" style="fill-rule:evenodd;clip-rule:evenodd;stroke-linejoin:round;stroke-miterlimit:2;">
    <g transform="matrix(1,0,0,1,-6175,-13600)">
        <g transform="matrix(8.333333,0,0,8.333333,0,0)">
            <g id="ico-todas">
                <g transform="matrix(1,0,0,1,741,1711.864715)">
                    <path d="M21.383,32.624C14.688,38.941 7.535,44.776 0,50.11L0,81.348C14.383,72.797 27.735,62.686 39.81,51.208C40.057,50.977 40.325,50.727 40.573,50.496L40.573,94.155L67.926,94.155L67.926,0L49.271,0C41.164,11.882 31.798,22.821 21.364,32.643L21.383,32.624Z" style="fill:white;fill-rule:nonzero;"/>
                </g>
                <g transform="matrix(1,0,0,1,819.054688,1711.845428)">
                    <path d="M46.562,32.643C36.147,22.821 26.781,11.882 18.655,0L0,0L0,94.155L27.354,94.155L27.354,50.496C27.602,50.746 27.849,50.977 28.117,51.208C40.191,62.686 53.544,72.816 67.926,81.348L67.926,50.111C60.391,44.776 53.257,38.941 46.543,32.624L46.562,32.643Z" style="fill:white;fill-rule:nonzero;"/>
                </g>
                <g transform="matrix(1,0,0,1,779.092773,1632.000046)">
                    <path d="M29.833,-0L29.833,69.831L0,69.831L0,34.916C0,17.198 12.971,2.504 29.833,-0Z" style="fill:white;fill-rule:nonzero;"/>
                </g>
                <g transform="matrix(0,1,1,0,799.113021,1651.960756)">
                    <path d="M14.955,49.87L49.87,49.87L49.87,19.961L-19.961,19.961C-17.496,36.88 -2.801,49.87 14.955,49.87Z" style="fill:white;fill-rule:nonzero;"/>
                </g>
            </g>
        </g>
    </g>
</svg>
