<?xml version="1.0" encoding="UTF-8" standalone="no"?>
<!DOCTYPE svg PUBLIC "-//W3C//DTD SVG 1.1//EN" "http://www.w3.org/Graphics/SVG/1.1/DTD/svg11.dtd">
<svg width="100%" height="100%" viewBox="0 0 1409 1401" version="1.1" xmlns="http://www.w3.org/2000/svg" xmlns:xlink="http://www.w3.org/1999/xlink" xml:space="preserve" xmlns:serif="http://www.serif.com/" style="fill-rule:evenodd;clip-rule:evenodd;stroke-linejoin:round;stroke-miterlimit:2;">
    <g transform="matrix(1,0,0,1,-1516,-13616)">
        <g transform="matrix(8.333333,0,0,8.333333,0,0)">
            <g transform="matrix(1,0,0,1,182.004395,1630.544846)">
                <g id="ico-pergamino">
                    <path d="M168.996,45.454L168.996,49.391C168.463,51.929 166.909,53.485 164.788,55.098L131.917,80.106C124.197,85.98 117.002,92.025 109.802,98.609C111.069,104.343 105.304,103.094 101.783,107.569L113.829,132.775C114.247,133.651 113.855,134.997 113.292,135.585C112.689,136.211 111.566,136.536 110.603,136.387L103.601,135.291L99.904,141.529C99.486,142.23 98.522,142.892 97.857,142.953C96.911,143.041 95.692,142.559 95.3,141.779L92.4,136.062L92.259,141.906C92.237,142.905 91.674,144.01 90.807,144.444C89.94,144.878 88.743,144.773 87.876,144.19L81.925,140.161L75.667,144.382C74.981,144.847 73.568,144.799 72.956,144.409C72.115,143.878 71.693,143.028 71.486,141.901L51.087,168.382C49.78,170.079 48.068,170.824 46.211,171.451L42.25,171.451C38.007,170.535 34.007,168.878 30.094,166.41C20.095,160.102 11.566,151.668 5.202,141.739C2.667,137.785 0.955,133.752 0,129.452L0,125.516C0.625,123.653 1.36,121.965 3.081,120.654L38.179,93.923C45.274,88.523 51.844,82.942 58.419,76.959C57.544,74.587 58.75,72.365 61.064,71.694C69.338,69.292 66.535,60.766 73.238,62.274L78.343,56.746C79.346,55.659 81.01,56.049 81.776,56.878C82.603,57.776 82.731,59.214 81.846,60.187L76.455,66.118C78.457,69.112 80.389,71.826 82.542,74.627C87.163,74.771 91.106,76.88 93.918,80.26L107.108,69.529L138.835,45.353C129.615,37.568 120.628,27.745 116.856,15.962L96.845,41.939L89.57,51.144C88.703,52.244 86.965,52.034 86.128,51.24C85.292,50.447 84.971,49.049 85.754,48.058L91.018,41.386L118.194,6.151C121.605,1.728 129.391,3.486 134.606,6.186C142.937,5.95 151.695,13.432 157.394,19.565C158.486,20.735 158.631,22.3 157.478,23.343C156.325,24.387 154.776,24.097 153.702,22.905C150.542,19.398 147.07,16.334 143.047,13.836C140.376,12.174 135.706,10.254 134.927,11.433C134.245,12.463 135.385,15.646 136.503,17.697C138.382,21.139 140.723,24.076 143.417,26.92C144.284,27.837 144.882,28.845 144.697,30.199C144.574,31.08 143.738,32.062 142.708,33.071C147.866,35.968 156.479,40.194 161.127,37.156C161.875,33.899 158.072,30.633 161.228,28.998C162.605,28.284 164.11,28.933 164.74,30.335C165.774,32.637 166.32,35.043 166.227,37.507C167.46,40.119 168.269,42.754 168.991,45.454L168.996,45.454ZM123.388,18.324L130.104,9.544C126.143,8.045 121.447,7.536 121.363,10.995C121.301,13.594 121.737,16.216 123.388,18.324ZM138.197,30.375C138.54,30.068 138.919,29.669 139.06,29.467C135.504,25.597 132.788,21.857 130.693,16.935L127.058,21.682C130.768,24.838 134.144,27.473 138.193,30.37L138.197,30.375ZM153.601,42.877C150.265,41.908 147.747,41.071 144.953,39.826C140.692,37.748 136.815,35.302 132.933,32.79C137.678,38.326 142.924,42.622 148.865,46.462L153.601,42.877ZM164.014,48.027C164.049,46.002 163.543,44.051 162.847,42.096L153.737,48.983C158.187,51.109 163.948,52.095 164.018,48.027L164.014,48.027ZM106.008,95.414C113.138,88.83 120.003,83.052 127.45,77.31L156.4,55.265C151.378,53.678 147.083,51.416 142.968,48.404L110.066,73.456C105.326,77.16 100.837,80.812 96.449,84.613C97.003,86.331 97.25,87.637 97.443,89.408C100.141,91.49 102.976,93.529 106.012,95.414L106.008,95.414ZM68.128,82.837C70.258,79.076 73.11,76.792 76.86,75.411L71.891,68.183C70.258,71.948 67.477,74.552 63.551,75.999L68.128,82.837ZM79.549,79.786C73.563,81.145 70.311,87.05 71.662,92.516C73.013,97.982 78.655,101.437 84.077,100.275C89.931,99.026 93.487,93.38 92.219,87.738C90.97,82.162 85.477,78.44 79.549,79.782L79.549,79.786ZM26.692,158.028L70.795,100.788C67.714,97.513 66.165,93.283 66.407,88.825L61.003,81.29C54.313,87.343 47.571,92.972 40.406,98.434L5.484,125.033C4.784,126.533 4.964,128.198 5.206,129.79C8.41,140.74 17.754,150.931 26.692,158.033L26.692,158.028ZM103.816,99.929L96.647,95.094C96.409,95.545 96.37,96.308 96.576,96.729L99.472,102.695L103.821,99.924L103.816,99.929ZM97.725,135.427C99.151,132.884 100.049,131.525 102.267,130.565C103.887,130.443 105.533,130.587 107.425,130.828L93.095,100.889L92.255,101.871L92.277,124.2L97.721,135.427L97.725,135.427ZM71.592,123.688C71.596,122.061 73.115,121.198 74.342,121.364C75.57,121.531 76.517,122.548 76.517,123.872L76.53,137.768L78.409,136.536C80.46,135.19 82.801,134.936 84.931,136.255L87.308,137.728L87.317,104.492C83.629,105.719 80.156,105.741 76.525,104.479L76.525,112.378C76.406,113.917 75.148,114.907 73.77,114.75C72.393,114.592 71.623,113.522 71.57,112.08L71.429,108.065L30.697,160.917C35.147,163.841 41.942,167.786 46.677,165.993L71.561,133.695L71.592,123.688Z" style="fill:white;fill-rule:nonzero;"/>
                </g>
            </g>
        </g>
    </g>
</svg>
