<?xml version="1.0" encoding="UTF-8" standalone="no"?>
<!DOCTYPE svg PUBLIC "-//W3C//DTD SVG 1.1//EN" "http://www.w3.org/Graphics/SVG/1.1/DTD/svg11.dtd">
<svg width="100%" height="100%" viewBox="0 0 1393 1434" version="1.1" xmlns="http://www.w3.org/2000/svg" xmlns:xlink="http://www.w3.org/1999/xlink" xml:space="preserve" xmlns:serif="http://www.serif.com/" style="fill-rule:evenodd;clip-rule:evenodd;stroke-linejoin:round;stroke-miterlimit:2;">
    <g transform="matrix(1,0,0,1,-6083,-13600)">
        <g transform="matrix(8.333333,0,0,8.333333,0,0)">
            <g id="ico-devalua">
                <g transform="matrix(1,0,0,1,730.000977,1632.000046)">
                    <path d="M94.984,-0L97.021,0.316C133.052,3.228 162.788,32.72 166.541,68.491C167.621,78.787 166.805,88.721 164.002,98.527C163.614,99.884 161.958,100.314 160.828,100.009C159.697,99.703 158.63,98.312 159.021,96.864C161.112,89.144 162.079,81.317 161.56,73.043L116.993,102.662C114.083,104.597 110.39,103.821 108.035,101.43L101.827,128.167C100.289,134.792 100.315,141.43 102.737,147.994C125.599,143.919 145.01,128.923 154.877,107.876C155.533,106.479 157.289,106.227 158.403,106.784C159.573,107.372 160.272,108.84 159.61,110.245C149.177,132.379 129.004,148.209 105.048,152.949L107.136,156.769C108.841,159.893 108.159,163.618 106.239,166.833C104.724,169.37 101.857,171.341 98.66,171.997L94.98,171.997C92.057,171.506 90.164,169.611 87.943,167.626C83.119,163.316 78.995,158.358 75.326,153.124C69.001,151.4 62.518,149.794 56.695,146.748L42.623,155.986C38.027,159.003 31.859,157.665 28.163,154.01C24.467,150.355 23.423,144.49 25.878,139.495C21.925,138.591 19.125,135.927 17.643,133.075C15.7,129.339 16.135,125.385 17.64,121.821C14.161,120.833 10.927,118.425 9.492,115.394C7.692,111.595 7.722,107.809 9.559,104.033C4.632,102.921 1.136,99.041 0.243,94.509C-0.744,89.517 1.327,84.589 5.478,81.804L13.278,76.567C13.345,56.864 20.971,38.246 34.327,24.087C47.811,9.806 65.977,1.347 85.283,-0L94.984,-0ZM72.784,133.807L76.406,143.321C78.895,149.855 83.012,155.361 87.963,160.212L92.719,164.875C94.947,167.058 98.205,167.33 100.593,165.355C102.727,163.591 103.439,160.323 101.767,157.786C95.85,148.81 94.114,138.08 96.549,127.555L103.968,95.487L74.794,51.254L71.991,53.159C68.047,55.836 63.602,56.918 58.842,56.186C56.23,55.786 53.41,56.34 51.182,57.808L36.669,67.382C35.398,68.222 33.662,67.208 33.15,66.025C32.638,64.843 33.01,63.479 34.277,62.639L47.955,53.558C51.634,51.116 55.885,50.327 60.23,50.972C63.104,51.398 65.947,50.753 68.338,49.168L71.874,46.823C69.546,43.49 70.064,38.858 73.563,36.526L114.207,9.453C92.211,1.723 68.064,4.801 48.613,18.665C31.518,30.852 19.814,50.911 18.69,72.992L24.617,69.065C25.935,68.192 27.608,68.592 28.354,69.794C29.099,70.997 28.869,72.596 27.601,73.439L8.321,86.282C5.01,88.489 4.414,92.91 6.525,96.021C8.635,99.132 12.87,100.025 16.145,97.852L21.376,94.382C22.704,93.501 24.196,93.693 25.119,94.885C25.928,95.93 25.855,97.724 24.564,98.598L16.359,104.13C13.144,106.297 12.616,110.712 14.666,113.732C16.717,116.752 20.945,117.793 24.176,115.663L29.625,112.075C30.983,111.182 32.632,111.511 33.401,112.767C34.13,113.957 33.896,115.609 32.638,116.439L24.965,121.502C21.637,123.699 20.61,127.895 22.694,131.247C24.708,134.489 29.089,135.551 32.414,133.354L37.863,129.752C39.198,128.872 40.863,129.282 41.639,130.643C42.235,131.691 42.078,133.273 40.853,134.096L32.645,139.632C29.394,141.823 28.969,146.408 31.086,149.304C33.444,152.526 37.549,153.124 40.887,150.903L68.613,132.447C69.275,132.007 70.519,131.815 71.225,132.06C71.797,132.259 72.496,133.068 72.777,133.804L72.784,133.807ZM161.068,66.983L159.523,59.464C153.733,38.599 138.929,21.335 119.114,12.574L96.703,27.503L134.761,84.515L161.072,66.986L161.068,66.983ZM111.644,97.523C112.584,98.635 113.625,98.577 114.588,97.932L130.336,87.414L92.294,30.433L76.928,40.618C75.864,41.324 75.329,42.342 76.068,43.564L111.644,97.519L111.644,97.523ZM72.018,146.764L68.904,138.635L61.856,143.331C65.147,144.665 68.506,145.871 72.018,146.764Z" style="fill:white;fill-rule:nonzero;"/>
                </g>
                <g transform="matrix(1,0,0,1,805.726562,1662.435975)">
                    <path d="M35.919,67.087L0.343,13.132C-0.397,11.909 0.139,10.888 1.202,10.186L16.569,0L54.61,56.982L38.862,67.5C37.902,68.142 36.859,68.199 35.919,67.09L35.919,67.087Z" style="fill:white;fill-rule:nonzero;"/>
                </g>
            </g>
        </g>
    </g>
</svg>
