<?xml version="1.0" encoding="UTF-8" standalone="no"?>
<!DOCTYPE svg PUBLIC "-//W3C//DTD SVG 1.1//EN" "http://www.w3.org/Graphics/SVG/1.1/DTD/svg11.dtd">
<svg width="100%" height="100%" viewBox="0 0 1926 1400" version="1.1" xmlns="http://www.w3.org/2000/svg" xmlns:xlink="http://www.w3.org/1999/xlink" xml:space="preserve" xmlns:serif="http://www.serif.com/" style="fill-rule:evenodd;clip-rule:evenodd;stroke-linejoin:round;stroke-miterlimit:2;">
    <g transform="matrix(1,0,0,1,-1316,-13650)">
        <g transform="matrix(8.333333,0,0,8.333333,0,0)">
            <g id="ico-desicion">
                <g transform="matrix(1,0,0,1,157.997559,1638)">
                    <path d="M34.912,148.378C34.411,153.04 30.592,156.348 26.109,156.102C21.626,155.855 18.084,152.288 18.115,147.422L18.682,59.136C15.466,66.12 15.303,77.134 15.623,85.338C15.798,89.748 12.769,93.321 8.485,93.555C4.202,93.79 0.95,90.662 0.545,86.229L0.214,82.607C-0.142,78.746 -0.01,74.932 0.292,71.124C0.907,63.509 2.374,56.231 6.344,49.704C10.313,43.177 17.089,37.866 25.156,36.97C33.626,36.025 41.82,36.964 50.345,37.096C55.998,37.186 61.241,34.684 66.478,33.084L66.539,7.85C66.551,3.513 70.539,0 74.925,0L187.273,0C191.635,0 195.653,3.465 195.653,7.922L195.623,81.711C195.623,85.934 191.387,89.248 187.345,89.248L74.859,89.248C70.72,89.248 66.599,85.934 66.587,81.771L66.472,49.945C62.725,51.19 59.733,52.116 56.185,53.024L56.36,146.959C56.366,151.723 53.718,155.332 49.12,156.036C44.897,156.685 40.203,153.774 39.702,149.136L37.265,126.477L34.918,148.384L34.912,148.378ZM71.969,81.483C71.969,83.047 74.129,83.859 75.329,83.859L187.266,83.847C189.342,83.847 190.253,82.138 190.253,80.352L190.253,8.391C190.247,6.665 188.871,5.402 187.104,5.402L75.094,5.402C73.362,5.402 71.932,6.737 71.932,8.307L71.957,30.894C76.246,28.879 79.939,26.906 83.842,24.608C87.444,22.491 91.987,24.145 93.785,27.472C95.728,31.063 94.763,35.514 91.125,37.692C84.898,41.415 78.732,44.567 71.938,47.605L71.969,81.483ZM24.202,51.93L23.563,147.404C23.551,149.461 24.812,150.658 26.573,150.67C27.991,150.682 29.307,149.605 29.475,147.855L34.507,96.208C34.664,94.572 36.058,93.609 37.44,93.7C38.604,93.778 39.811,94.746 39.955,96.208L44.981,147.855C45.168,149.792 46.61,150.838 48.306,150.658C49.844,150.496 50.894,149.305 50.894,147.404L50.731,50.733C50.731,49.163 51.715,48.182 53.048,47.954C56.547,47.358 59.769,46.594 63.093,45.331C71.932,41.986 80.144,37.842 88.295,33.072C89.465,32.386 89.64,30.684 88.796,29.733C88.114,28.969 86.859,29.054 85.797,29.703C76.657,35.285 66.81,39.225 56.384,41.794C52.813,42.672 49.458,42.666 45.85,42.426C39.081,41.968 32.408,41.704 25.638,42.396C19.351,43.033 14.199,47.274 11.05,52.513C5.348,61.987 4.974,75.485 6.108,86.602C6.187,87.396 7.804,88.196 8.509,88.081C9.312,87.949 10.187,86.854 10.163,85.832C9.927,75.955 10.078,64.634 13.964,55.918C15.822,51.743 20.214,47.178 22.959,48.862C23.702,49.319 24.232,50.354 24.226,51.918L24.202,51.93Z" style="fill:white;fill-rule:nonzero;"/>
                </g>
                <g transform="matrix(1,0,0,1,334.266602,1751.532593)">
                    <path d="M51.705,54.461L2.756,54.461C1.284,54.461 0.077,53.192 0.035,51.827C-0.267,42.563 1.254,34.695 9.845,30.833L18.177,27.086C14.509,21.991 13.061,16.349 14.129,10.357C15.305,3.759 20.874,0.059 27.463,0.119C34.051,0.18 39.65,4.222 40.561,11.049C41.333,16.83 39.934,22.298 36.452,27.038L44.024,30.497C48.966,32.752 52.477,36.343 53.702,41.643C54.963,47.093 55.795,54.461 51.705,54.461ZM49.074,49.054C49.074,45.27 48.549,41.998 46.721,39.056C44.29,35.134 37.195,34.593 32.289,30.713C29.243,32.421 25.538,32.656 22.364,30.701C19.493,32.566 16.603,34.015 13.363,35.231C6.822,37.679 5.706,41.992 5.465,49.06L49.074,49.06L49.074,49.054Z" style="fill:white;fill-rule:nonzero;"/>
                </g>
                <g transform="matrix(1,0,0,1,277.328613,1751.42062)">
                    <path d="M52.219,54.561L2.685,54.58C1.007,54.58 0.036,53.166 0.012,51.662C-0.151,42.537 1.279,34.813 9.786,30.976L18.136,27.204C14.582,22.229 13.159,16.774 14.033,10.921C15.041,4.172 20.61,0.123 27.409,0.25C32.876,0.352 38.01,2.866 39.802,8.232C41.986,14.789 40.417,21.598 36.447,27.144L43.959,30.615C53.16,34.861 54.668,41.298 54.566,51.704C54.554,52.643 53.709,54.573 52.225,54.573L52.219,54.561ZM49.093,49.172C48.943,42.483 47.639,37.815 41.715,35.547C38.402,34.278 35.319,32.87 32.236,30.819C29.183,32.618 25.503,32.696 22.341,30.819C17.527,34.531 10.667,35.271 8.163,38.765C6.033,41.743 5.502,45.298 5.472,49.172L49.093,49.172Z" style="fill:white;fill-rule:nonzero;"/>
                </g>
                <g transform="matrix(1,0,0,1,220.348145,1751.610443)">
                    <path d="M52.184,54.378L2.65,54.39C1.051,54.39 0.049,52.892 0.019,51.484C-0.216,41.066 1.642,34.515 10.734,30.365L18.143,26.984C14.632,22.118 13.232,16.608 14.059,10.821C15.036,3.994 20.563,0.024 27.356,0.048C33.794,0.072 39.218,3.663 40.437,10.123C41.577,16.151 40.105,21.895 36.479,26.984L44.25,30.539C53.27,34.66 54.706,41.487 54.591,51.496C54.579,52.489 53.71,54.372 52.184,54.372L52.184,54.378ZM49.113,48.982C49.143,45.529 48.491,42.624 47.321,39.688C44.268,34.768 37.643,34.732 32.243,30.617C29.16,32.464 25.498,32.458 22.355,30.641C19.434,32.512 16.484,34.004 13.274,35.165C6.975,37.451 5.721,41.986 5.443,48.976L49.113,48.976L49.113,48.982Z" style="fill:white;fill-rule:nonzero;"/>
                </g>
                <g transform="matrix(1,0,0,1,181,1640.462927)">
                    <path d="M10.558,3.42C18.413,1.495 25.683,6.241 27.451,13.574C29.219,20.906 24.718,28.473 17.225,30.296C9.731,32.119 2.503,27.83 0.512,20.612C-1.521,13.231 2.636,5.363 10.552,3.426L10.558,3.42Z" style="fill:white;fill-rule:nonzero;"/>
                </g>
                <g transform="matrix(1,0,0,1,281.55127,1658.223388)">
                    <path d="M46.222,5.408L2.806,5.408C1.165,5.408 0.025,4.138 0,2.791C-0.024,1.281 1.117,0 2.896,0L46.126,0C47.682,0 48.816,1.161 48.949,2.358C49.124,3.892 48.002,5.402 46.216,5.402L46.222,5.408Z" style="fill:white;fill-rule:nonzero;"/>
                </g>
                <g transform="matrix(1,0,0,1,309.077637,1675.727894)">
                    <path d="M18.979,5.414L2.828,5.45C1.265,5.45 0.077,4.193 0.004,2.839C-0.08,1.317 1.138,-0 2.882,-0L18.714,-0C20.15,-0 21.278,1.227 21.441,2.418C21.604,3.609 20.644,5.408 18.979,5.408L18.979,5.414Z" style="fill:white;fill-rule:nonzero;"/>
                </g>
            </g>
        </g>
    </g>
</svg>
