<?xml version="1.0" encoding="UTF-8" standalone="no"?>
<!DOCTYPE svg PUBLIC "-//W3C//DTD SVG 1.1//EN" "http://www.w3.org/Graphics/SVG/1.1/DTD/svg11.dtd">
<svg width="100%" height="100%" viewBox="0 0 1959 1401" version="1.1" xmlns="http://www.w3.org/2000/svg" xmlns:xlink="http://www.w3.org/1999/xlink" xml:space="preserve" xmlns:serif="http://www.serif.com/" style="fill-rule:evenodd;clip-rule:evenodd;stroke-linejoin:round;stroke-miterlimit:2;">
    <g transform="matrix(1,0,0,1,-1300,-9216)">
        <g transform="matrix(8.333333,0,0,8.333333,0,0)">
            <g id="ico-birrete">
                <g transform="matrix(1,0,0,1,200.68335,1195.472122)">
                    <path d="M145.666,0L145.666,53.63C145.666,86.86 0,86.86 0,53.63L0,0.033L72.833,31.808L145.666,0Z" style="fill:white;fill-rule:nonzero;"/>
                </g>
                <g transform="matrix(1,0,0,1,156,1105.999962)">
                    <path d="M235,51.283L213.582,60.64L117.517,102.566L21.418,60.64L0,51.283L117.517,0L235,51.283Z" style="fill:white;fill-rule:nonzero;"/>
                </g>
                <g transform="matrix(1,0,0,1,363.972198,1182.411571)">
                    <path d="M12.309,0L12.309,51.812L0,57.135L0,5.356L5.61,2.91L12.309,0Z" style="fill:white;fill-rule:nonzero;"/>
                </g>
            </g>
        </g>
    </g>
</svg>
