<?xml version="1.0" encoding="UTF-8" standalone="no"?>
<!DOCTYPE svg PUBLIC "-//W3C//DTD SVG 1.1//EN" "http://www.w3.org/Graphics/SVG/1.1/DTD/svg11.dtd">
<svg width="100%" height="100%" viewBox="0 0 1402 1401" version="1.1" xmlns="http://www.w3.org/2000/svg" xmlns:xlink="http://www.w3.org/1999/xlink" xml:space="preserve" xmlns:serif="http://www.serif.com/" style="fill-rule:evenodd;clip-rule:evenodd;stroke-linejoin:round;stroke-miterlimit:2;">
    <g transform="matrix(1,0,0,1,-6074,-13616)">
        <g transform="matrix(8.333333,0,0,8.333333,0,0)">
            <g id="ico-escalera">
                <g transform="matrix(1,0,0,1,728.997192,1633.79988)">
                    <path d="M155.961,48.039C155.961,51.715 158.835,54.27 162.144,54.18C165.229,54.1 167.958,51.585 167.958,48.184L167.958,18.192C167.958,15.381 166.183,13.251 163.579,12.381L127.937,0.5C126.733,0.1 125.213,0.1 124.008,0.5L87.812,12.596C85.283,13.441 83.938,16.012 84.003,18.352C84.063,20.567 85.393,22.947 87.817,23.757L123.458,35.668C124.943,36.163 126.443,36.358 127.927,35.863L155.966,26.517L155.966,48.039L155.961,48.039ZM77.869,33.278L77.964,29.793C77.709,23.102 72.246,18.092 65.792,18.192C59.339,18.292 53.915,23.492 54.005,30.158L54.045,33.318C61.658,29.248 70.316,29.288 77.869,33.278ZM145.748,47.919C148.532,46.989 150.002,44.569 149.987,41.829L149.942,34.853L129.582,41.629C126.738,42.574 124.028,42.169 121.294,41.254L102.004,34.798L101.984,42.204C101.979,44.719 103.508,46.804 105.793,47.754L123.493,53.675C124.903,54.145 126.488,54.345 127.912,53.87L145.753,47.914L145.748,47.919ZM65.987,84.193L65.987,36.183C61.508,36.228 57.319,37.768 53.985,40.649L53.985,87.363C57.784,85.323 61.678,84.213 65.987,84.193ZM77.984,87.193L77.984,40.544C75.995,39.054 74.185,37.973 71.986,37.228L71.996,85.018L77.989,87.193L77.984,87.193ZM59.984,162.19L59.984,126.191L101.954,126.196C105.383,126.116 107.897,123.596 107.977,120.171L107.967,78.182L147.383,78.197L145.193,80.552C143.319,83.068 143.639,86.443 145.838,88.543C147.848,90.458 151.572,90.983 153.791,88.768L166.553,76.007C168.488,74.072 168.483,70.306 166.553,68.376L153.791,55.615C151.572,53.4 147.848,53.92 145.838,55.84C143.644,57.94 143.319,61.316 145.198,63.831L147.383,66.186L102.383,66.196C98.554,66.056 95.965,68.861 95.965,72.597L95.985,114.205L53.64,114.205C50.371,114.475 48.041,116.941 47.981,120.216L47.981,156.214L6.391,156.194C2.817,156.194 0.113,158.599 0.003,162.05C-0.097,165.25 2.442,168.21 6.016,168.21L53.965,168.21C57.339,168.21 59.979,165.555 59.979,162.2L59.984,162.19ZM29.881,75.282L29.976,71.797C29.721,65.106 24.257,60.095 17.804,60.195C11.35,60.295 5.926,65.496 6.016,72.162L6.056,75.322C13.67,71.251 22.328,71.291 29.881,75.282ZM17.999,126.196L17.999,78.187C13.52,78.232 9.331,79.772 5.996,82.652L5.996,129.367C9.796,127.326 13.69,126.216 17.999,126.196ZM29.996,129.197L29.996,82.547C28.006,81.057 26.197,79.977 23.997,79.232L24.007,127.021L30.001,129.197L29.996,129.197ZM65.997,108.145L76.075,93.078C69.876,89.228 62.088,89.188 55.905,93.093L65.997,108.145ZM18.009,150.148L28.086,135.082C21.888,131.232 14.099,131.192 7.916,135.097L18.009,150.148Z" style="fill:white;fill-rule:nonzero;"/>
                </g>
                <g transform="matrix(1,0,0,1,729.002197,1686.425461)">
                    <path d="M59.979,109.564C59.979,112.914 57.334,115.57 53.965,115.57L6.016,115.57C2.442,115.57 -0.097,112.609 0.003,109.414C0.113,105.964 2.817,103.559 6.391,103.559L47.991,103.579L47.991,67.58C48.046,64.305 50.371,61.84 53.64,61.565L95.985,61.565L95.965,19.961C95.965,16.226 98.549,13.426 102.383,13.561L147.383,13.551L145.198,11.195C143.319,8.68 143.644,5.305 145.838,3.205C147.843,1.284 151.572,0.764 153.791,2.98L166.553,15.741C168.483,17.671 168.488,21.441 166.553,23.371L153.791,36.133C151.572,38.348 147.848,37.823 145.838,35.908C143.639,33.807 143.319,30.432 145.193,27.917L147.383,25.562L107.967,25.547L107.977,67.535C107.897,70.961 105.383,73.481 101.954,73.561L59.984,73.561L59.984,109.549L59.979,109.564Z" style="fill:white;fill-rule:nonzero;"/>
                </g>
                <g transform="matrix(1,0,0,1,812.992798,1633.797065)">
                    <path d="M71.965,48.052L71.965,26.52L43.927,35.866C42.447,36.361 40.943,36.166 39.458,35.671L3.816,23.76C1.392,22.95 0.062,20.57 0.002,18.355C-0.063,16.014 1.282,13.444 3.811,12.599L40.013,0.508C41.217,0.108 42.732,0.103 43.942,0.508L79.588,12.394C82.193,13.264 83.962,15.394 83.962,18.205L83.962,48.197C83.962,51.598 81.233,54.108 78.149,54.193C74.839,54.283 71.965,51.728 71.965,48.052Z" style="fill:white;fill-rule:nonzero;"/>
                </g>
                <g transform="matrix(0.964077,-0.265621,-0.265621,-0.964077,789.999886,1721.836936)">
                    <path d="M5.827,2.382C1.672,3.506 -2.377,3.47 -6.582,2.513L5.827,47.549C9.801,49.441 14.249,49.813 18.579,48.667L5.827,2.382Z" style="fill:white;fill-rule:nonzero;"/>
                </g>
                <g transform="matrix(0.964078,-0.265621,-0.265621,-0.964078,742.011173,1763.840607)">
                    <path d="M5.827,2.382C1.672,3.506 -2.377,3.47 -6.582,2.512L5.827,47.549C9.801,49.441 14.249,49.813 18.579,48.667L5.827,2.382Z" style="fill:white;fill-rule:nonzero;"/>
                </g>
                <g transform="matrix(1,0,0,1,830.975708,1668.603141)">
                    <path d="M43.77,13.116L25.929,19.072C24.504,19.547 22.92,19.347 21.51,18.877L3.809,12.956C1.53,12.001 -0.005,9.916 0,7.406L0.02,-0L19.31,6.455C22.045,7.371 24.754,7.781 27.598,6.83L47.959,0.055L48.004,7.031C48.024,9.771 46.549,12.191 43.765,13.121L43.77,13.116Z" style="fill:white;fill-rule:nonzero;"/>
                </g>
                <g transform="matrix(1,0,0,1,800.977905,1671.028424)">
                    <path d="M6.004,49.964L0.01,47.789L0,-0C2.199,0.745 4.009,1.825 5.999,3.315L5.999,49.964L6.004,49.964Z" style="fill:white;fill-rule:nonzero;"/>
                </g>
                <g transform="matrix(1,0,0,1,752.989258,1713.032086)">
                    <path d="M6.004,49.964L0.01,47.789L0,-0C2.199,0.745 4.009,1.825 5.999,3.315L5.999,49.964L6.004,49.964Z" style="fill:white;fill-rule:nonzero;"/>
                </g>
                <g transform="matrix(1,0,0,1,783.001221,1651.8028)">
                    <path d="M23.865,15.275C16.307,11.285 7.654,11.24 0.041,15.315L0.001,12.155C-0.084,5.489 5.38,0.284 11.788,0.189C18.197,0.094 23.7,5.104 23.96,11.79L23.865,15.275Z" style="fill:white;fill-rule:nonzero;"/>
                </g>
                <g transform="matrix(1,0,0,1,735.012573,1693.806701)">
                    <path d="M23.865,15.275C16.307,11.285 7.654,11.24 0.041,15.315L0.001,12.155C-0.084,5.489 5.38,0.284 11.788,0.189C18.197,0.094 23.7,5.104 23.96,11.79L23.865,15.275Z" style="fill:white;fill-rule:nonzero;"/>
                </g>
                <g transform="matrix(1,0,0,1,784.901733,1721.998284)">
                    <path d="M10.093,19.946L0,4.895C6.179,0.99 13.972,1.03 20.17,4.88L10.093,19.946Z" style="fill:white;fill-rule:nonzero;"/>
                </g>
                <g transform="matrix(1,0,0,1,736.913086,1764.002197)">
                    <path d="M10.093,19.946L0,4.895C6.179,0.99 13.972,1.03 20.17,4.88L10.093,19.946Z" style="fill:white;fill-rule:nonzero;"/>
                </g>
            </g>
        </g>
    </g>
</svg>
