<?xml version="1.0" encoding="UTF-8" standalone="no"?>
<!DOCTYPE svg PUBLIC "-//W3C//DTD SVG 1.1//EN" "http://www.w3.org/Graphics/SVG/1.1/DTD/svg11.dtd">
<svg width="100%" height="100%" viewBox="0 0 1393 1393" version="1.1" xmlns="http://www.w3.org/2000/svg" xmlns:xlink="http://www.w3.org/1999/xlink" xml:space="preserve" xmlns:serif="http://www.serif.com/" style="fill-rule:evenodd;clip-rule:evenodd;stroke-linejoin:round;stroke-miterlimit:2;">
    <g transform="matrix(1,0,0,1,-1583,-9149)">
        <g transform="matrix(8.333333,0,0,8.333333,0,0)">
            <g id="ico-organigrama">
                <g transform="matrix(1,0,0,1,300.711426,1192.094834)">
                    <path d="M56.289,54.975L56.289,57.576L55.658,58.923C49.861,66.857 41.024,71.803 31.5,72.905L25.015,72.783C15.452,71.829 6.663,67.075 0.848,59.228C-0.126,57.912 -0.152,56.212 0.226,54.705C2.884,44.435 9.207,36.095 18.779,32.047C10.981,26.296 10.255,15.324 16.57,8.544C22.902,1.751 33.679,1.852 39.837,8.671C46.099,15.612 45.151,26.313 37.527,32.052C47.721,36.4 53.523,45.027 56.293,54.971L56.289,54.975ZM26.929,8.522C20.653,9.237 16.6,14.901 17.348,20.701C18.114,26.636 23.48,30.784 29.369,30.13C35.257,29.476 39.684,24.039 38.941,18.026C38.232,12.296 33.135,7.817 26.929,8.522ZM51.383,56.439C49.778,49.55 46.264,43.637 40.82,39.516C33.257,33.79 23.428,33.681 15.77,39.302C10.112,43.454 6.406,49.629 4.919,56.496C10.699,63.929 19.283,68.055 28.386,67.968C37.301,67.886 45.799,63.79 51.388,56.435L51.383,56.439Z" style="fill:white;fill-rule:nonzero;"/>
                </g>
                <g transform="matrix(1,0,0,1,190,1192.035988)">
                    <path d="M30.986,72.964L25.441,72.964C15.695,72.075 6.58,67.06 0.652,58.96L0,57.635L0,55.352C2.505,45.374 8.572,36.424 18.792,32.098C11.164,26.337 10.198,15.466 16.622,8.586C22.963,1.793 33.865,1.928 40.028,8.952C46.099,15.871 45.007,26.603 37.488,32.089C47.186,36.128 53.514,44.781 56.089,54.751C56.476,56.271 56.428,57.962 55.441,59.282C49.535,67.217 40.624,71.962 30.978,72.96L30.986,72.964ZM27.059,8.564C20.736,9.205 16.583,14.856 17.37,20.851C18.126,26.616 23.45,30.886 29.412,30.185C35.374,29.483 39.641,24.233 38.967,18.194C38.332,12.503 33.265,7.937 27.064,8.564L27.059,8.564ZM51.396,56.502C49.761,49.522 46.19,43.592 40.715,39.496C33.1,33.801 23.289,33.779 15.661,39.439C10.055,43.601 6.423,49.709 4.923,56.542C10.594,63.879 19.179,68.058 28.22,68.027C37.166,67.997 45.708,63.94 51.396,56.507L51.396,56.502Z" style="fill:white;fill-rule:nonzero;"/>
                </g>
                <g transform="matrix(1,0,0,1,245.375977,1094.516395)">
                    <path d="M55.205,59.496C48.703,68.04 38.735,72.82 28.289,72.864C17.665,72.907 7.658,68.084 1.108,59.548C0.243,58.42 -0.036,57.099 0.004,55.657C2.452,45.1 8.775,36.246 18.778,32.019C11.054,26.198 10.289,15.488 16.482,8.669C22.692,1.828 33.321,1.741 39.649,8.481C46.011,15.261 45.289,26.215 37.492,32.01C47.472,36.215 53.835,45.117 56.275,55.653C56.301,56.99 56.123,58.285 55.205,59.492L55.205,59.496ZM26.476,8.564C20.244,9.523 16.395,15.292 17.404,21.183C18.387,26.934 23.932,30.965 29.763,30.063C35.595,29.161 39.77,23.671 38.879,17.71C38.022,11.971 32.686,7.61 26.471,8.564L26.476,8.564ZM51.373,56.446C48.525,44.402 39.362,34.673 26.806,35.152C15.264,36.224 7.314,45.622 4.896,56.498C10.672,63.884 19.222,68.014 28.28,67.958C37.205,67.901 45.663,63.849 51.373,56.446Z" style="fill:white;fill-rule:nonzero;"/>
                </g>
                <g transform="matrix(1,0,0,1,215.589355,1170.586964)">
                    <path d="M110.681,13.791L5.154,13.791L5.097,17.12C5.071,18.671 3.988,19.717 2.601,19.773C1.213,19.83 0.017,18.793 0.013,17.255L0,11.377C0,9.747 1.17,8.693 2.822,8.693L55.323,8.693L55.367,2.78C55.38,1.286 56.454,0.227 57.754,0.153C59.189,0.074 60.42,1.177 60.437,2.78L60.485,8.693L112.986,8.693C114.639,8.693 115.817,9.743 115.808,11.368L115.791,17.251C115.787,18.723 114.452,19.73 113.208,19.704C111.82,19.673 110.785,18.632 110.751,17.116L110.672,13.782L110.681,13.791Z" style="fill:white;fill-rule:nonzero;"/>
                </g>
            </g>
        </g>
    </g>
</svg>
