<?xml version="1.0" encoding="UTF-8" standalone="no"?>
<!DOCTYPE svg PUBLIC "-//W3C//DTD SVG 1.1//EN" "http://www.w3.org/Graphics/SVG/1.1/DTD/svg11.dtd">
<svg width="100%" height="100%" viewBox="0 0 1434 1426" version="1.1" xmlns="http://www.w3.org/2000/svg" xmlns:xlink="http://www.w3.org/1999/xlink" xml:space="preserve" xmlns:serif="http://www.serif.com/" style="fill-rule:evenodd;clip-rule:evenodd;stroke-linejoin:round;stroke-miterlimit:2;">
    <g transform="matrix(1,0,0,1,-5991,-9166)">
        <g transform="matrix(8.333333,0,0,8.333333,0,0)">
            <g id="ico-precio">
                <g transform="matrix(1,0,0,1,719,1099.284592)">
                    <path d="M172,4.379L172,7.052L171.028,8.77L155.915,23.811L156.695,26.007L168.076,71.698C169.532,77.548 167.745,82.764 163.566,86.923L82.932,167.236C80.423,169.735 77.436,171.051 74.242,171.716L69.875,171.716C66.511,171.055 63.685,169.534 61.123,166.981L5.594,111.781C2.741,108.943 0.587,106.101 0,102.241L0.031,97.922C0.824,94.91 1.769,91.996 4.179,89.605L85.113,9.261C89.373,5.031 94.564,3.125 100.602,4.611L146.29,15.86L148.771,16.708L163.212,2.344C164.623,0.939 166.468,0.359 168.475,0.943C170.011,1.394 171.216,2.737 172,4.379ZM158.365,74.46L147.786,31.906L135.643,43.953C138.886,50.892 136.561,58.714 130.518,62.814C124.476,66.915 116.364,66.116 111.24,60.949C106.116,55.778 105.466,47.684 109.659,41.758C113.892,35.774 121.753,33.717 128.53,36.845L140.614,24.771L98.47,14.423C96.239,13.727 94.385,14.254 92.755,15.873L11.489,96.552C9.662,98.364 9.514,101.509 11.377,103.361L68.751,160.404C70.856,162.497 73.996,161.908 75.944,159.967L156.748,79.498C158.155,78.097 158.791,76.616 158.365,74.469L158.365,74.46ZM120.584,45.631C117.636,46.456 116.414,49.526 117.242,51.998C118.116,54.6 120.848,55.88 123.271,55.238C126.124,54.479 127.549,51.699 126.841,49.071C126.138,46.465 123.473,44.819 120.584,45.631Z" style="fill:white;fill-rule:nonzero;"/>
                </g>
                <g transform="matrix(1,0,0,1,757.59668,1186.609462)">
                    <path d="M5.975,17.629C2.786,17.982 0.457,16.103 0.054,13.399C-0.349,10.695 1.541,8.022 4.569,7.688L68.854,0.597C71.703,0.285 73.938,2.703 74.162,5.104C74.386,7.505 72.693,10.244 69.826,10.561L5.98,17.625L5.975,17.629Z" style="fill:white;fill-rule:nonzero;"/>
                </g>
                <g transform="matrix(1,0,0,1,783.147461,1203.249834)">
                    <path d="M12.773,2.47C21.301,1.14 28.759,6.977 30.022,15.017C31.308,23.196 25.646,30.867 17.431,32.143C9.329,33.401 1.633,27.94 0.227,19.917C-1.193,11.805 4.178,3.809 12.773,2.47ZM13.781,12.492C10.807,13.286 9.485,16.298 10.341,18.899C11.161,21.385 13.857,22.804 16.419,22.112C18.981,21.421 20.652,18.667 19.953,16.017C19.254,13.367 16.665,11.724 13.781,12.496L13.781,12.492Z" style="fill:white;fill-rule:nonzero;"/>
                </g>
                <g transform="matrix(1,0,0,1,776.028809,1155.600884)">
                    <path d="M14.79,0.345C23.301,0.171 29.912,6.859 30.185,14.82C30.472,23.226 23.811,30.098 15.637,30.352C7.229,30.615 0.354,24.163 0.013,15.993C-0.336,7.662 6.141,0.523 14.795,0.345L14.79,0.345ZM14.786,10.371C11.753,10.554 9.751,13.164 10.127,15.989C10.472,18.559 12.716,20.58 15.637,20.308C18.185,20.071 20.34,17.8 20.085,14.891C19.87,12.41 17.76,10.192 14.781,10.371L14.786,10.371Z" style="fill:white;fill-rule:nonzero;"/>
                </g>
            </g>
        </g>
    </g>
</svg>
