<?xml version="1.0" encoding="UTF-8" standalone="no"?>
<!DOCTYPE svg PUBLIC "-//W3C//DTD SVG 1.1//EN" "http://www.w3.org/Graphics/SVG/1.1/DTD/svg11.dtd">
<svg width="100%" height="100%" viewBox="0 0 1634 1434" version="1.1" xmlns="http://www.w3.org/2000/svg" xmlns:xlink="http://www.w3.org/1999/xlink" xml:space="preserve" xmlns:serif="http://www.serif.com/" style="fill-rule:evenodd;clip-rule:evenodd;stroke-linejoin:round;stroke-miterlimit:2;">
    <g transform="matrix(1,0,0,1,-1425,-9208)">
        <g transform="matrix(8.333333,0,0,8.333333,0,0)">
            <g id="ico-explica">
                <g transform="matrix(1,0,0,1,171.011719,1104.999954)">
                    <path d="M195.969,15.759L195.989,88.308C194.622,97.065 187.253,103.998 177.996,104.017L149.037,104.082L171.083,164.376C172.243,167.546 170.264,170.732 167.454,171.67C164.502,172.653 161.352,171.174 160.176,167.961L136.787,104.075L132.756,104.113L109.526,168.188C108.39,171.324 105.078,172.58 102.421,171.693C99.451,170.701 97.82,167.777 98.628,164.572L120.54,104.075L99.903,104.063C95.887,111.53 87.075,114.235 79.365,110.819L60.703,101.492L60.687,166.128C60.687,169.245 58.256,171.969 55.068,171.969L18.394,172C15.144,172.046 12.311,169.683 12.307,166.293L12.284,133.96C5.578,131.605 1.011,125.863 0,119.054L0.08,95.597C1.183,83.37 7.718,72.614 18.639,66.431C6.852,56.109 6.209,38.563 16.4,27.368C26.59,16.174 44.02,15.433 55.11,25.866C65.985,36.095 66.824,53.446 56.205,64.694L73.806,73.478L73.814,18C74.017,8.243 81.554,0 91.542,0L178.322,0C187.597,0 194.4,7.117 195.969,15.759ZM101.116,92.531L177.939,92.539C181.859,92.373 184.558,89.491 184.504,85.575L184.504,18.403C184.508,14.618 181.897,11.459 177.943,11.455L91.921,11.455C88.108,11.452 85.459,14.318 85.294,18.015L85.287,79.189L92.97,83.074L105.147,58.637C106.713,55.832 109.852,54.741 112.711,56.063C115.154,57.192 117.026,60.497 115.602,63.368L101.116,92.527L101.116,92.531ZM35.211,30.101C26.127,30.842 19.952,38.862 20.836,47.478C21.721,56.093 29.262,62.234 37.757,61.558C46.347,60.874 52.843,53.246 52.174,44.642C51.507,36.103 44.18,29.371 35.211,30.101ZM49.199,92.008C49.425,89.63 50.535,88.077 51.994,87.209C53.705,86.19 55.749,86.11 57.571,87.02L84.326,100.432C86.244,101.392 88.334,100.547 89.509,99.01C90.853,97.25 90.505,94.729 88.384,93.668L52.977,75.926C48.238,73.551 43.821,73.34 38.683,73.102C23.788,72.41 11.427,83.562 11.454,98.745L11.488,116.752C11.496,120.426 14.31,123.269 17.935,123.381C21.269,123.481 23.807,126.002 23.773,129.441L23.773,160.472L49.203,160.456L49.203,92.008L49.199,92.008Z" style="fill:white;fill-rule:nonzero;"/>
                </g>
                <g transform="matrix(-0.996741,0.080662,0.080662,0.996741,221.633104,1132.488138)">
                    <path d="M15.571,1.361C6.572,1.357 -0.188,8.658 -0.163,17.223C-0.136,25.857 6.954,32.932 15.571,32.921C24.093,32.914 31.116,26.057 31.301,17.522C31.486,8.987 24.685,1.364 15.571,1.361Z" style="fill:white;fill-rule:nonzero;"/>
                </g>
                <g transform="matrix(1,0,0,1,269.435547,1129.609334)">
                    <path d="M67.116,11.525L6.115,11.536C2.616,11.536 0.074,9.219 0.001,5.856C-0.064,2.851 2.336,0 5.766,0L67.242,0C70.519,0 72.85,2.652 72.931,5.541C73.015,8.662 70.76,11.525 67.112,11.525L67.116,11.525Z" style="fill:white;fill-rule:nonzero;"/>
                </g>
                <g transform="matrix(1,0,0,1,300.179688,1151.228967)">
                    <path d="M36.578,11.521L5.738,11.536C2.412,11.536 0,8.831 0,5.768C0,2.705 2.412,0 5.738,0L36.402,0C39.613,0 42.014,2.479 42.178,5.461C42.343,8.431 40.069,11.525 36.574,11.525L36.578,11.521Z" style="fill:white;fill-rule:nonzero;"/>
                </g>
                <g transform="matrix(1,0,0,1,300.191406,1172.83334)">
                    <path d="M36.701,11.513L5.613,11.528C2.401,11.528 0.12,8.85 0.005,5.983C-0.121,2.943 2.229,0.031 5.559,0.027L36.181,-0C39.454,-0 41.915,2.198 42.175,5.372C42.409,8.204 40.215,11.509 36.697,11.509L36.701,11.513Z" style="fill:white;fill-rule:nonzero;"/>
                </g>
            </g>
        </g>
    </g>
</svg>
